<svg xmlns="http://www.w3.org/2000/svg" width="30" height="30" viewBox="0 0 30 30" fill="none">
  <path fill-rule="evenodd" clip-rule="evenodd" d="M7.74561 18.959C7.74561 16.7724 12.7203 14.9983 18.8591 14.9983C24.9961 14.9983 29.9709 16.7725 29.9709 18.959V22.5993C29.9709 24.7859 24.9961 26.56 18.8591 26.56C12.7203 26.56 7.74561 24.7859 7.74561 22.5993V18.959Z" fill="#FE9923"/>
  <path fill-rule="evenodd" clip-rule="evenodd" d="M18.8591 14.9983C24.9961 14.9983 29.9709 16.7725 29.9709 18.959C29.9709 21.1472 24.9961 22.9197 18.8591 22.9197C12.7203 22.9197 7.74561 21.1473 7.74561 18.959C7.74555 16.7724 12.7203 14.9983 18.8591 14.9983Z" fill="#FECD3D"/>
  <path fill-rule="evenodd" clip-rule="evenodd" d="M18.8588 16.8491C23.7416 16.8491 27.6989 17.795 27.6989 18.959C27.6989 20.1247 23.7416 21.0689 18.8588 21.0689C13.9761 21.0689 10.0171 20.1247 10.0171 18.959C10.0171 17.795 13.9761 16.8491 18.8588 16.8491Z" fill="#FEA832"/>
  <path d="M13.2329 24.3462L14.1822 24.3479V26.1919C13.8645 26.1401 13.548 26.081 13.2329 26.0146V24.3462ZM26.9659 23.3697V25.3074C27.3084 25.1762 27.6254 25.0382 27.9168 24.8933V23.368L26.9659 23.3697ZM16.6653 26.4816C16.9789 26.5055 17.2959 26.5225 17.6163 26.5345V24.7723L16.6653 24.774V26.4816ZM9.79883 24.8933C10.0903 25.0382 10.4073 25.1762 10.7498 25.3074V23.368L9.79883 23.3697V24.8933ZM20.0994 26.5345C20.4161 26.5222 20.7325 26.5046 21.0487 26.4816V24.774L20.0994 24.7723V26.5345ZM23.5335 26.1919C23.8513 26.1402 24.1678 26.0811 24.4828 26.0146V24.3479L23.5335 24.3462V26.1919Z" fill="#C85929"/>
  <path d="M3.29225 23.3594V24.5388H4.46992V25.3806H3.29225V26.56H2.45037V25.3806H1.271V24.5388H2.45037V23.3594H3.29225ZM24.8376 10.4428V11.6221H26.0169V12.4624H24.8376V13.6417H23.9956V12.4624H22.818V11.6221H23.9956V10.4428H24.8376ZM3.85809 3.43998V4.61935H5.03576V5.45953H3.85809V6.63891H3.01615V5.45953H1.83684V4.61935H3.01615V3.43998H3.85809Z" fill="#FEA832"/>
  <path fill-rule="evenodd" clip-rule="evenodd" d="M0.233021 16.9003C-0.8611 15.0051 2.56107 10.9813 7.87663 7.91367C13.1923 4.8443 18.3868 3.89332 19.4809 5.78672C20.0873 6.83732 20.694 7.88771 21.3011 8.93789C22.3952 10.833 18.9731 14.8568 13.6575 17.9245C8.34193 20.9938 3.1473 21.9465 2.05318 20.0514C1.44644 19.0016 0.839759 17.9501 0.233021 16.9003Z" fill="#FE9923"/>
  <path fill-rule="evenodd" clip-rule="evenodd" d="M7.87663 7.91367C13.1923 4.8443 18.3868 3.89332 19.4809 5.78672C20.5751 7.68187 17.1529 11.7056 11.8373 14.7733C6.52347 17.8427 1.32714 18.7937 0.233021 16.9002C-0.8611 15.0051 2.56107 10.9813 7.87663 7.91367Z" fill="#FECD3D"/>
  <path fill-rule="evenodd" clip-rule="evenodd" d="M8.80184 9.51568C13.0301 7.07519 16.9312 5.91457 17.514 6.92349C18.0969 7.93242 15.14 10.7291 10.9117 13.1713C6.68345 15.6118 2.78409 16.7725 2.20126 15.7635C1.61843 14.7546 4.57354 11.9579 8.80184 9.51568Z" fill="#FEA832"/>
  <path d="M11.6893 16.9991L12.5704 18.5244C12.2896 18.6727 12.006 18.8158 11.72 18.9538L10.8662 17.4746L11.6893 16.9991ZM4.21777 19.6918L4.97961 21.0109C5.3034 20.9921 5.6477 20.9529 6.00898 20.895L5.04096 19.2163L4.21777 19.6918ZM7.67914 18.821L8.51422 20.2662C8.8199 20.1661 9.12334 20.0593 9.4243 19.9458L8.50227 18.3472L7.67914 18.821ZM13.84 15.7567L14.7212 17.282C14.9894 17.1133 15.2547 16.94 15.5171 16.7622L14.6632 15.2846L13.84 15.7567ZM19.9072 10.632L19.0841 11.1091L20.0538 12.7861C20.2839 12.5033 20.4901 12.2237 20.669 11.9527L19.9072 10.632ZM16.601 13.6707L17.523 15.2693C17.7724 15.0662 18.0167 14.8571 18.2558 14.6421L17.4225 13.1986L16.601 13.6707Z" fill="#C85929"/>
</svg>