<?xml version="1.0" encoding="UTF-8"?>
<!DOCTYPE svg PUBLIC "-//W3C//DTD SVG 1.1//EN" "http://www.w3.org/Graphics/SVG/1.1/DTD/svg11.dtd">
<svg xmlns="http://www.w3.org/2000/svg" xml:space="preserve" width="1in" height="1in" version="1.1"
    style="shape-rendering:geometricPrecision; text-rendering:geometricPrecision; image-rendering:optimizeQuality; fill-rule:evenodd; clip-rule:evenodd"
    viewBox="0 0 6.25 6.25"
    xmlns:xlink="http://www.w3.org/1999/xlink"
    xmlns:xodm="http://www.corel.com/coreldraw/odm/2003">
 <defs>
  <style type="text/css">
   <![CDATA[
    .fil1 {fill:#FEFEFE;fill-rule:nonzero}
    .fil0 {fill:url(#id0);fill-rule:nonzero}
   ]]>
  </style>
  <radialGradient id="id0" gradientUnits="userSpaceOnUse" gradientTransform="matrix(-1.26974 1.44098 -1.44098 -1.26974 12 3)" cx="3.25" cy="3.188" r="56.25" fx="3.25" fy="3.188">
   <stop offset="0" style="stop-opacity:1; stop-color:#153196"/>
   <stop offset="1" style="stop-opacity:1; stop-color:#0E2476"/>
  </radialGradient>
 </defs>
 <g id="Layer_x0020_1">
  <metadata id="CorelCorpID_0Corel-Layer"/>
  <rect class="fil0" width="6.25" height="6.25"/>
  <g id="_1910096070352">
   <path class="fil1" d="M5.259 3.051c0,0.058 -0.009,0.111 -0.027,0.16 -0.018,0.049 -0.044,0.091 -0.078,0.126 -0.034,0.035 -0.075,0.062 -0.123,0.081 -0.048,0.019 -0.101,0.028 -0.16,0.028 -0.059,0 -0.112,-0.009 -0.159,-0.028 -0.047,-0.019 -0.088,-0.046 -0.122,-0.082 -0.034,-0.035 -0.061,-0.077 -0.078,-0.125 -0.018,-0.048 -0.027,-0.102 -0.027,-0.16 0,-0.059 0.009,-0.113 0.027,-0.162 0.018,-0.049 0.044,-0.091 0.078,-0.125 0.034,-0.035 0.075,-0.061 0.123,-0.08 0.048,-0.019 0.101,-0.028 0.159,-0.028 0.059,0 0.112,0.01 0.16,0.028 0.048,0.019 0.089,0.046 0.123,0.081 0.034,0.035 0.06,0.077 0.078,0.125 0.018,0.048 0.027,0.102 0.027,0.16zm-0.195 0c0,-0.079 -0.017,-0.141 -0.052,-0.185 -0.035,-0.044 -0.082,-0.066 -0.141,-0.066 -0.038,0 -0.071,0.01 -0.1,0.03 -0.029,0.02 -0.051,0.049 -0.067,0.087 -0.016,0.038 -0.023,0.083 -0.023,0.135 0,0.051 0.008,0.095 0.023,0.133 0.015,0.038 0.038,0.067 0.066,0.087 0.029,0.02 0.063,0.03 0.102,0.03 0.059,0 0.106,-0.022 0.141,-0.067 0.035,-0.044 0.052,-0.106 0.052,-0.184z"/>
   <path class="fil1" d="M3.897 2.777l0.157 0.442 0.17 -0.461c0.013,-0.037 0.026,-0.063 0.039,-0.079 0.013,-0.015 0.032,-0.023 0.058,-0.023 0.025,0 0.046,0.008 0.063,0.025 0.017,0.017 0.026,0.036 0.026,0.058 0,0.009 -0.002,0.019 -0.005,0.03 -0.003,0.011 -0.007,0.022 -0.011,0.032 -0.004,0.01 -0.009,0.021 -0.014,0.034l-0.187 0.463c-0.005,0.013 -0.012,0.03 -0.02,0.051 -0.008,0.02 -0.018,0.038 -0.028,0.052 -0.01,0.014 -0.023,0.026 -0.038,0.034 -0.015,0.008 -0.033,0.012 -0.055,0.012 -0.028,0 -0.05,-0.006 -0.066,-0.019 -0.016,-0.013 -0.028,-0.026 -0.036,-0.041 -0.008,-0.015 -0.021,-0.045 -0.04,-0.089l-0.185 -0.458c-0.004,-0.011 -0.009,-0.023 -0.013,-0.034 -0.005,-0.011 -0.008,-0.023 -0.011,-0.035 -0.003,-0.012 -0.005,-0.022 -0.005,-0.031 0,-0.013 0.004,-0.026 0.012,-0.04 0.008,-0.013 0.019,-0.024 0.033,-0.032 0.014,-0.008 0.03,-0.012 0.046,-0.012 0.032,0 0.055,0.009 0.067,0.028 0.012,0.019 0.026,0.05 0.04,0.093z"/>
   <path class="fil1" d="M2.916 3.328l0 -0.844c0,-0.039 0.009,-0.068 0.026,-0.088 0.017,-0.02 0.041,-0.03 0.07,-0.03 0.029,0 0.053,0.01 0.071,0.03 0.018,0.02 0.027,0.049 0.027,0.089l0 0.844c0,0.039 -0.009,0.069 -0.027,0.089 -0.018,0.02 -0.042,0.03 -0.071,0.03 -0.029,0 -0.052,-0.01 -0.069,-0.031 -0.018,-0.02 -0.027,-0.05 -0.027,-0.088z"/>
   <path class="fil1" d="M2.591 3.099l-0.381 0c0,0.044 0.009,0.083 0.027,0.117 0.017,0.034 0.04,0.059 0.069,0.076 0.029,0.017 0.06,0.026 0.095,0.026 0.023,0 0.045,-0.003 0.064,-0.008 0.019,-0.005 0.038,-0.014 0.056,-0.026 0.018,-0.012 0.035,-0.024 0.05,-0.037 0.015,-0.013 0.035,-0.031 0.059,-0.054 0.01,-0.009 0.024,-0.013 0.043,-0.013 0.02,0 0.036,0.005 0.048,0.016 0.012,0.011 0.019,0.026 0.019,0.046 0,0.018 -0.007,0.038 -0.021,0.062 -0.014,0.024 -0.035,0.046 -0.062,0.068 -0.028,0.022 -0.063,0.04 -0.105,0.054 -0.042,0.014 -0.09,0.021 -0.145,0.021 -0.125,0 -0.222,-0.036 -0.291,-0.107 -0.069,-0.071 -0.104,-0.168 -0.104,-0.29 0,-0.057 0.009,-0.111 0.026,-0.16 0.017,-0.049 0.042,-0.091 0.075,-0.127 0.033,-0.035 0.073,-0.062 0.121,-0.081 0.048,-0.019 0.101,-0.028 0.16,-0.028 0.076,0 0.141,0.016 0.196,0.048 0.054,0.032 0.095,0.074 0.122,0.124 0.027,0.051 0.041,0.103 0.041,0.155 0,0.049 -0.014,0.081 -0.042,0.095 -0.028,0.014 -0.067,0.022 -0.118,0.022zm-0.381 -0.11l0.353 0c-0.005,-0.067 -0.023,-0.116 -0.054,-0.149 -0.031,-0.033 -0.072,-0.05 -0.123,-0.05 -0.048,0 -0.088,0.017 -0.119,0.05 -0.031,0.034 -0.05,0.083 -0.057,0.149z"/>
   <path class="fil1" d="M0.991 3.829l0 -0.233 0.028 0 0 0.094c0.007,-0.007 0.014,-0.013 0.023,-0.017 0.008,-0.004 0.018,-0.007 0.029,-0.007 0.009,0 0.016,0.001 0.023,0.004 0.007,0.003 0.012,0.007 0.017,0.012 0.004,0.005 0.008,0.012 0.01,0.019 0.002,0.008 0.003,0.016 0.003,0.025l0 0.102 -0.028 0 0 -0.102c0,-0.012 -0.003,-0.022 -0.008,-0.028 -0.006,-0.007 -0.014,-0.01 -0.025,-0.01 -0.008,0 -0.016,0.002 -0.023,0.006 -0.007,0.004 -0.014,0.009 -0.02,0.016l0 0.118 -0.028 0zm0.31 0l-0.012 0c-0.003,0 -0.005,-0 -0.007,-0.001 -0.002,-0.001 -0.003,-0.003 -0.003,-0.005l-0.003 -0.015c-0.004,0.004 -0.008,0.007 -0.012,0.01 -0.004,0.003 -0.008,0.005 -0.013,0.008 -0.005,0.002 -0.009,0.004 -0.014,0.005 -0.005,0.001 -0.011,0.002 -0.017,0.002 -0.006,0 -0.012,-0.001 -0.017,-0.003 -0.005,-0.002 -0.01,-0.004 -0.014,-0.008 -0.004,-0.003 -0.007,-0.008 -0.01,-0.013 -0.002,-0.005 -0.004,-0.012 -0.004,-0.019 0,-0.006 0.002,-0.012 0.005,-0.018 0.003,-0.006 0.009,-0.011 0.017,-0.016 0.008,-0.005 0.018,-0.008 0.03,-0.011 0.013,-0.003 0.028,-0.005 0.046,-0.005l0 -0.012c0,-0.012 -0.003,-0.022 -0.008,-0.028 -0.005,-0.006 -0.013,-0.01 -0.024,-0.01 -0.007,0 -0.013,0.001 -0.017,0.003 -0.005,0.002 -0.009,0.004 -0.012,0.006 -0.003,0.002 -0.006,0.004 -0.009,0.006 -0.003,0.002 -0.005,0.003 -0.007,0.003 -0.002,0 -0.004,-0.001 -0.005,-0.002 -0.001,-0.001 -0.003,-0.002 -0.003,-0.004l-0.005 -0.009c0.009,-0.009 0.018,-0.015 0.029,-0.019 0.01,-0.004 0.022,-0.006 0.034,-0.006 0.009,0 0.017,0.001 0.024,0.004 0.007,0.003 0.013,0.007 0.018,0.012 0.005,0.005 0.008,0.012 0.011,0.019 0.002,0.007 0.004,0.016 0.004,0.025l0 0.103zm-0.073 -0.017c0.005,0 0.01,-0.001 0.014,-0.002 0.004,-0.001 0.008,-0.002 0.012,-0.004 0.004,-0.002 0.007,-0.004 0.011,-0.007 0.003,-0.003 0.007,-0.006 0.01,-0.009l0 -0.033c-0.013,0 -0.024,0.001 -0.033,0.003 -0.009,0.002 -0.017,0.004 -0.022,0.006 -0.006,0.003 -0.01,0.006 -0.012,0.009 -0.003,0.004 -0.004,0.008 -0.004,0.012 0,0.004 0.001,0.008 0.002,0.011 0.001,0.003 0.003,0.006 0.006,0.008 0.002,0.002 0.005,0.003 0.008,0.004 0.003,0.001 0.007,0.001 0.01,0.001zm0.132 0.072l0 -0.215 0.017 0c0.004,0 0.007,0.002 0.008,0.006l0.002 0.019c0.007,-0.008 0.015,-0.015 0.024,-0.02 0.009,-0.005 0.019,-0.008 0.03,-0.008 0.009,0 0.018,0.002 0.025,0.005 0.007,0.004 0.014,0.009 0.019,0.016 0.005,0.007 0.009,0.016 0.012,0.026 0.003,0.01 0.004,0.022 0.004,0.035 0,0.012 -0.002,0.023 -0.005,0.033 -0.003,0.01 -0.008,0.019 -0.014,0.026 -0.006,0.007 -0.013,0.013 -0.022,0.018 -0.009,0.004 -0.018,0.006 -0.029,0.006 -0.01,0 -0.018,-0.002 -0.025,-0.005 -0.007,-0.003 -0.013,-0.008 -0.019,-0.014l0 0.071 -0.028 0zm0.071 -0.195c-0.009,0 -0.017,0.002 -0.024,0.006 -0.007,0.004 -0.013,0.01 -0.019,0.018l0 0.078c0.005,0.007 0.011,0.012 0.017,0.015 0.006,0.003 0.013,0.004 0.021,0.004 0.015,0 0.026,-0.005 0.034,-0.016 0.008,-0.011 0.012,-0.026 0.012,-0.046 0,-0.01 -0.001,-0.019 -0.003,-0.027 -0.002,-0.007 -0.004,-0.014 -0.008,-0.018 -0.003,-0.005 -0.008,-0.008 -0.013,-0.011 -0.005,-0.002 -0.011,-0.003 -0.017,-0.003zm0.119 0.195l0 -0.215 0.017 0c0.004,0 0.007,0.002 0.008,0.006l0.002 0.019c0.007,-0.008 0.015,-0.015 0.024,-0.02 0.009,-0.005 0.019,-0.008 0.03,-0.008 0.009,0 0.018,0.002 0.025,0.005 0.007,0.004 0.014,0.009 0.019,0.016 0.005,0.007 0.009,0.016 0.012,0.026 0.003,0.01 0.004,0.022 0.004,0.035 0,0.012 -0.002,0.023 -0.005,0.033 -0.003,0.01 -0.008,0.019 -0.014,0.026 -0.006,0.007 -0.013,0.013 -0.022,0.018 -0.009,0.004 -0.018,0.006 -0.029,0.006 -0.01,0 -0.018,-0.002 -0.025,-0.005 -0.007,-0.003 -0.013,-0.008 -0.019,-0.014l0 0.071 -0.028 0zm0.071 -0.195c-0.009,0 -0.017,0.002 -0.024,0.006 -0.007,0.004 -0.013,0.01 -0.019,0.018l0 0.078c0.005,0.007 0.011,0.012 0.017,0.015 0.006,0.003 0.013,0.004 0.021,0.004 0.015,0 0.026,-0.005 0.034,-0.016 0.008,-0.011 0.012,-0.026 0.012,-0.046 0,-0.01 -0.001,-0.019 -0.003,-0.027 -0.002,-0.007 -0.004,-0.014 -0.008,-0.018 -0.003,-0.005 -0.008,-0.008 -0.013,-0.011 -0.005,-0.002 -0.011,-0.003 -0.017,-0.003zm0.151 -0.02l0 0.16 -0.028 0 0 -0.16 0.028 0zm0.006 -0.05c0,0.003 -0.001,0.005 -0.002,0.008 -0.001,0.002 -0.003,0.004 -0.004,0.006 -0.002,0.002 -0.004,0.003 -0.006,0.004 -0.002,0.001 -0.005,0.002 -0.008,0.002 -0.003,0 -0.005,-0.001 -0.008,-0.002 -0.002,-0.001 -0.004,-0.003 -0.006,-0.004 -0.002,-0.002 -0.003,-0.004 -0.004,-0.006 -0.001,-0.002 -0.002,-0.005 -0.002,-0.008 0,-0.003 0.001,-0.005 0.002,-0.008 0.001,-0.002 0.003,-0.005 0.004,-0.006 0.002,-0.002 0.004,-0.003 0.006,-0.004 0.002,-0.001 0.005,-0.002 0.008,-0.002 0.003,0 0.005,0.001 0.008,0.002 0.002,0.001 0.005,0.003 0.006,0.004 0.002,0.002 0.003,0.004 0.004,0.006 0.001,0.003 0.002,0.005 0.002,0.008zm0.059 0.211l0 -0.16 0.017 0c0.004,0 0.007,0.002 0.008,0.006l0.002 0.017c0.007,-0.008 0.015,-0.014 0.023,-0.019 0.009,-0.005 0.019,-0.007 0.03,-0.007 0.009,0 0.016,0.001 0.023,0.004 0.007,0.003 0.012,0.007 0.017,0.012 0.004,0.005 0.008,0.012 0.01,0.019 0.002,0.008 0.003,0.016 0.003,0.025l0 0.102 -0.028 0 0 -0.102c0,-0.012 -0.003,-0.022 -0.008,-0.028 -0.006,-0.007 -0.014,-0.01 -0.025,-0.01 -0.008,0 -0.016,0.002 -0.023,0.006 -0.007,0.004 -0.014,0.009 -0.02,0.016l0 0.118 -0.028 0zm0.255 -0.163c0.01,0 0.018,0.002 0.027,0.005 0.008,0.003 0.015,0.008 0.021,0.014 0.006,0.006 0.011,0.014 0.014,0.022 0.003,0.009 0.005,0.019 0.005,0.031 0,0.004 -0,0.007 -0.001,0.009 -0.001,0.002 -0.003,0.002 -0.005,0.002l-0.107 0c0,0.01 0.002,0.019 0.004,0.026 0.003,0.007 0.006,0.014 0.01,0.019 0.004,0.005 0.01,0.009 0.016,0.011 0.006,0.003 0.013,0.004 0.021,0.004 0.007,0 0.013,-0.001 0.018,-0.003 0.005,-0.002 0.009,-0.003 0.013,-0.005 0.004,-0.002 0.007,-0.004 0.009,-0.005 0.002,-0.002 0.005,-0.002 0.006,-0.002 0.002,0 0.004,0.001 0.005,0.003l0.008 0.01c-0.003,0.004 -0.008,0.008 -0.012,0.011 -0.005,0.003 -0.01,0.006 -0.016,0.008 -0.006,0.002 -0.011,0.004 -0.017,0.005 -0.006,0.001 -0.012,0.002 -0.018,0.002 -0.011,0 -0.021,-0.002 -0.031,-0.006 -0.009,-0.004 -0.017,-0.009 -0.024,-0.017 -0.007,-0.007 -0.012,-0.016 -0.016,-0.027 -0.004,-0.011 -0.006,-0.023 -0.006,-0.037 0,-0.011 0.002,-0.022 0.005,-0.031 0.003,-0.01 0.008,-0.018 0.015,-0.025 0.006,-0.007 0.014,-0.013 0.024,-0.017 0.009,-0.004 0.02,-0.006 0.031,-0.006zm0.001 0.021c-0.014,0 -0.024,0.004 -0.032,0.012 -0.008,0.008 -0.013,0.019 -0.015,0.033l0.087 0c0,-0.007 -0.001,-0.013 -0.003,-0.018 -0.002,-0.005 -0.004,-0.01 -0.008,-0.014 -0.003,-0.004 -0.008,-0.007 -0.013,-0.009 -0.005,-0.002 -0.011,-0.003 -0.017,-0.003zm0.209 0.008c-0.001,0.002 -0.003,0.004 -0.006,0.004 -0.002,0 -0.003,-0.001 -0.005,-0.002 -0.002,-0.001 -0.005,-0.002 -0.007,-0.004 -0.003,-0.001 -0.006,-0.003 -0.01,-0.004 -0.004,-0.001 -0.009,-0.002 -0.014,-0.002 -0.005,0 -0.009,0.001 -0.013,0.002 -0.004,0.001 -0.007,0.003 -0.01,0.005 -0.003,0.002 -0.005,0.005 -0.006,0.007 -0.001,0.003 -0.002,0.006 -0.002,0.009 0,0.004 0.001,0.008 0.004,0.01 0.002,0.003 0.005,0.005 0.009,0.007 0.004,0.002 0.008,0.004 0.013,0.005 0.005,0.002 0.01,0.003 0.015,0.005 0.005,0.002 0.01,0.004 0.015,0.006 0.005,0.002 0.009,0.005 0.013,0.008 0.004,0.003 0.007,0.007 0.009,0.012 0.002,0.005 0.003,0.01 0.003,0.017 0,0.007 -0.001,0.014 -0.004,0.021 -0.003,0.006 -0.007,0.012 -0.012,0.016 -0.005,0.005 -0.012,0.008 -0.019,0.011 -0.007,0.003 -0.016,0.004 -0.026,0.004 -0.011,0 -0.021,-0.002 -0.03,-0.005 -0.009,-0.004 -0.017,-0.008 -0.023,-0.014l0.007 -0.011c0.001,-0.001 0.002,-0.002 0.003,-0.003 0.001,-0.001 0.003,-0.001 0.005,-0.001 0.002,0 0.004,0.001 0.006,0.002 0.002,0.002 0.005,0.003 0.008,0.005 0.003,0.002 0.007,0.003 0.011,0.005 0.004,0.002 0.01,0.002 0.016,0.002 0.005,0 0.01,-0.001 0.014,-0.002 0.004,-0.001 0.008,-0.003 0.01,-0.006 0.003,-0.002 0.005,-0.005 0.006,-0.008 0.001,-0.003 0.002,-0.007 0.002,-0.01 0,-0.004 -0.001,-0.008 -0.004,-0.011 -0.002,-0.003 -0.006,-0.005 -0.009,-0.007 -0.004,-0.002 -0.008,-0.004 -0.013,-0.005 -0.005,-0.002 -0.01,-0.003 -0.015,-0.005 -0.005,-0.002 -0.01,-0.004 -0.015,-0.006 -0.005,-0.002 -0.009,-0.005 -0.013,-0.008 -0.004,-0.003 -0.007,-0.007 -0.009,-0.012 -0.002,-0.005 -0.004,-0.011 -0.004,-0.017 0,-0.006 0.001,-0.012 0.004,-0.018 0.003,-0.006 0.006,-0.011 0.011,-0.015 0.005,-0.004 0.011,-0.008 0.018,-0.01 0.007,-0.003 0.015,-0.004 0.024,-0.004 0.011,0 0.02,0.002 0.028,0.005 0.008,0.003 0.016,0.008 0.022,0.014l-0.006 0.01zm0.153 0c-0.001,0.002 -0.003,0.004 -0.006,0.004 -0.002,0 -0.003,-0.001 -0.005,-0.002 -0.002,-0.001 -0.004,-0.002 -0.007,-0.004 -0.003,-0.001 -0.006,-0.003 -0.01,-0.004 -0.004,-0.001 -0.009,-0.002 -0.014,-0.002 -0.005,0 -0.009,0.001 -0.013,0.002 -0.004,0.001 -0.007,0.003 -0.01,0.005 -0.003,0.002 -0.005,0.005 -0.006,0.007 -0.001,0.003 -0.002,0.006 -0.002,0.009 0,0.004 0.001,0.008 0.004,0.01 0.002,0.003 0.005,0.005 0.009,0.007 0.004,0.002 0.008,0.004 0.013,0.005 0.005,0.002 0.01,0.003 0.015,0.005 0.005,0.002 0.01,0.004 0.015,0.006 0.005,0.002 0.009,0.005 0.013,0.008 0.004,0.003 0.007,0.007 0.009,0.012 0.002,0.005 0.003,0.01 0.003,0.017 0,0.007 -0.001,0.014 -0.004,0.021 -0.003,0.006 -0.007,0.012 -0.012,0.016 -0.005,0.005 -0.012,0.008 -0.019,0.011 -0.007,0.003 -0.016,0.004 -0.026,0.004 -0.011,0 -0.021,-0.002 -0.03,-0.005 -0.009,-0.004 -0.017,-0.008 -0.023,-0.014l0.007 -0.011c0.001,-0.001 0.002,-0.002 0.003,-0.003 0.001,-0.001 0.003,-0.001 0.005,-0.001 0.002,0 0.004,0.001 0.006,0.002 0.002,0.002 0.005,0.003 0.008,0.005 0.003,0.002 0.007,0.003 0.011,0.005 0.004,0.002 0.01,0.002 0.016,0.002 0.005,0 0.01,-0.001 0.014,-0.002 0.004,-0.001 0.008,-0.003 0.01,-0.006 0.003,-0.002 0.005,-0.005 0.006,-0.008 0.001,-0.003 0.002,-0.007 0.002,-0.01 0,-0.004 -0.001,-0.008 -0.004,-0.011 -0.002,-0.003 -0.006,-0.005 -0.009,-0.007 -0.004,-0.002 -0.008,-0.004 -0.013,-0.005 -0.005,-0.002 -0.01,-0.003 -0.015,-0.005 -0.005,-0.002 -0.01,-0.004 -0.015,-0.006 -0.005,-0.002 -0.009,-0.005 -0.013,-0.008 -0.004,-0.003 -0.007,-0.007 -0.009,-0.012 -0.002,-0.005 -0.004,-0.011 -0.004,-0.017 0,-0.006 0.001,-0.012 0.004,-0.018 0.003,-0.006 0.006,-0.011 0.011,-0.015 0.005,-0.004 0.011,-0.008 0.018,-0.01 0.007,-0.003 0.015,-0.004 0.024,-0.004 0.011,0 0.02,0.002 0.028,0.005 0.008,0.003 0.016,0.008 0.022,0.014l-0.006 0.01zm0.268 -0.026l0 0.215 -0.028 0 0 -0.078c-0.007,0.008 -0.014,0.014 -0.023,0.019 -0.009,0.005 -0.019,0.007 -0.03,0.007 -0.009,0 -0.018,-0.002 -0.025,-0.005 -0.007,-0.003 -0.014,-0.009 -0.019,-0.016 -0.005,-0.007 -0.009,-0.015 -0.012,-0.026 -0.003,-0.01 -0.004,-0.022 -0.004,-0.035 0,-0.012 0.002,-0.023 0.005,-0.033 0.003,-0.01 0.008,-0.019 0.014,-0.027 0.006,-0.007 0.013,-0.013 0.022,-0.018 0.009,-0.004 0.018,-0.006 0.029,-0.006 0.01,0 0.019,0.002 0.026,0.006 0.007,0.004 0.014,0.009 0.019,0.016l0.002 -0.013c0.001,-0.004 0.003,-0.006 0.008,-0.006l0.017 0zm-0.071 0.14c0.009,0 0.017,-0.002 0.024,-0.006 0.007,-0.004 0.013,-0.01 0.019,-0.018l0 -0.078c-0.005,-0.007 -0.011,-0.012 -0.017,-0.015 -0.006,-0.003 -0.013,-0.004 -0.021,-0.004 -0.015,0 -0.026,0.005 -0.034,0.016 -0.008,0.011 -0.012,0.026 -0.012,0.046 0,0.01 0.001,0.019 0.003,0.027 0.002,0.007 0.004,0.014 0.008,0.018 0.003,0.005 0.008,0.008 0.013,0.011 0.005,0.002 0.011,0.003 0.017,0.003zm0.159 -0.14l0 0.102c0,0.012 0.003,0.021 0.008,0.028 0.006,0.007 0.014,0.01 0.025,0.01 0.008,0 0.016,-0.002 0.023,-0.006 0.007,-0.004 0.014,-0.009 0.02,-0.016l0 -0.118 0.028 0 0 0.16 -0.017 0c-0.004,0 -0.007,-0.002 -0.008,-0.006l-0.002 -0.017c-0.007,0.008 -0.015,0.014 -0.023,0.019 -0.009,0.005 -0.019,0.007 -0.03,0.007 -0.009,0 -0.016,-0.001 -0.023,-0.004 -0.007,-0.003 -0.012,-0.007 -0.017,-0.012 -0.005,-0.005 -0.008,-0.012 -0.01,-0.019 -0.002,-0.007 -0.003,-0.016 -0.003,-0.025l0 -0.102 0.028 0zm0.199 0l0 0.16 -0.028 0 0 -0.16 0.028 0zm0.006 -0.05c0,0.003 -0.001,0.005 -0.002,0.008 -0.001,0.002 -0.003,0.004 -0.004,0.006 -0.002,0.002 -0.004,0.003 -0.006,0.004 -0.002,0.001 -0.005,0.002 -0.008,0.002 -0.003,0 -0.005,-0.001 -0.008,-0.002 -0.002,-0.001 -0.004,-0.003 -0.006,-0.004 -0.002,-0.002 -0.003,-0.004 -0.004,-0.006 -0.001,-0.002 -0.002,-0.005 -0.002,-0.008 0,-0.003 0.001,-0.005 0.002,-0.008 0.001,-0.002 0.003,-0.005 0.004,-0.006 0.002,-0.002 0.004,-0.003 0.006,-0.004 0.002,-0.001 0.005,-0.002 0.008,-0.002 0.003,0 0.005,0.001 0.008,0.002 0.002,0.001 0.005,0.003 0.006,0.004 0.002,0.002 0.003,0.004 0.004,0.006 0.001,0.003 0.002,0.005 0.002,0.008zm0.169 0.079c-0.001,0.001 -0.002,0.002 -0.003,0.003 -0.001,0.001 -0.002,0.001 -0.004,0.001 -0.002,0 -0.003,-0.001 -0.005,-0.002 -0.002,-0.001 -0.004,-0.003 -0.007,-0.004 -0.003,-0.002 -0.006,-0.003 -0.01,-0.004 -0.004,-0.001 -0.009,-0.002 -0.015,-0.002 -0.008,0 -0.015,0.001 -0.021,0.004 -0.006,0.003 -0.011,0.007 -0.015,0.012 -0.004,0.005 -0.007,0.012 -0.009,0.019 -0.002,0.007 -0.003,0.016 -0.003,0.025 0,0.01 0.001,0.018 0.003,0.026 0.002,0.008 0.005,0.014 0.009,0.019 0.004,0.005 0.009,0.009 0.015,0.012 0.006,0.003 0.012,0.004 0.019,0.004 0.007,0 0.012,-0.001 0.017,-0.002 0.004,-0.002 0.008,-0.003 0.011,-0.005 0.003,-0.002 0.005,-0.004 0.007,-0.005 0.002,-0.002 0.004,-0.002 0.006,-0.002 0.002,0 0.004,0.001 0.005,0.003l0.008 0.01c-0.007,0.009 -0.016,0.015 -0.026,0.019 -0.01,0.004 -0.022,0.006 -0.033,0.006 -0.01,0 -0.019,-0.002 -0.028,-0.006 -0.009,-0.004 -0.016,-0.009 -0.022,-0.016 -0.006,-0.007 -0.011,-0.016 -0.015,-0.026 -0.004,-0.01 -0.005,-0.022 -0.005,-0.035 0,-0.012 0.002,-0.023 0.005,-0.033 0.003,-0.01 0.008,-0.019 0.015,-0.026 0.006,-0.007 0.014,-0.013 0.024,-0.017 0.009,-0.004 0.02,-0.006 0.032,-0.006 0.011,0 0.021,0.002 0.03,0.005 0.009,0.004 0.016,0.009 0.023,0.015l-0.007 0.01zm0.084 -0.101l0 0.137 0.007 0c0.002,0 0.004,-0 0.005,-0.001 0.001,-0.001 0.003,-0.002 0.005,-0.004l0.051 -0.054c0.002,-0.002 0.003,-0.003 0.005,-0.004 0.002,-0.001 0.004,-0.002 0.006,-0.002l0.026 0 -0.059 0.063c-0.002,0.002 -0.003,0.003 -0.004,0.005 -0.001,0.001 -0.003,0.003 -0.005,0.004 0.002,0.001 0.004,0.003 0.005,0.004 0.002,0.002 0.003,0.004 0.004,0.006l0.063 0.079 -0.025 0c-0.002,0 -0.004,-0 -0.006,-0.001 -0.002,-0.001 -0.003,-0.002 -0.005,-0.004l-0.053 -0.066c-0.002,-0.002 -0.003,-0.004 -0.005,-0.004 -0.002,-0.001 -0.004,-0.001 -0.007,-0.001l-0.008 0 0 0.077 -0.028 0 0 -0.233 0.028 0zm0.184 0l0 0.233 -0.028 0 0 -0.233 0.028 0zm0.112 0.28c-0.001,0.002 -0.002,0.004 -0.003,0.005 -0.001,0.001 -0.004,0.002 -0.007,0.002l-0.021 0 0.029 -0.064 -0.066 -0.151 0.024 0c0.002,0 0.004,0.001 0.006,0.002 0.001,0.001 0.002,0.003 0.003,0.004l0.043 0.101c0.001,0.002 0.002,0.005 0.003,0.007 0.001,0.002 0.001,0.005 0.002,0.007 0.001,-0.002 0.001,-0.005 0.002,-0.007 0.001,-0.002 0.002,-0.005 0.003,-0.007l0.042 -0.101c0.001,-0.002 0.002,-0.003 0.003,-0.004 0.002,-0.001 0.003,-0.002 0.005,-0.002l0.022 0 -0.089 0.208zm0.321 -0.047c-0.004,0 -0.007,-0.002 -0.008,-0.006l-0.003 -0.019c-0.007,0.008 -0.015,0.015 -0.023,0.02 -0.009,0.005 -0.019,0.008 -0.03,0.008 -0.009,0 -0.018,-0.002 -0.025,-0.005 -0.007,-0.003 -0.014,-0.009 -0.019,-0.016 -0.005,-0.007 -0.009,-0.015 -0.012,-0.026 -0.003,-0.01 -0.004,-0.022 -0.004,-0.035 0,-0.012 0.002,-0.023 0.005,-0.033 0.003,-0.01 0.008,-0.019 0.014,-0.027 0.006,-0.007 0.013,-0.013 0.022,-0.018 0.009,-0.004 0.018,-0.006 0.029,-0.006 0.01,0 0.018,0.002 0.025,0.005 0.007,0.003 0.013,0.008 0.019,0.014l0 -0.089 0.028 0 0 0.233 -0.017 0zm-0.055 -0.021c0.009,0 0.017,-0.002 0.024,-0.006 0.007,-0.004 0.013,-0.01 0.019,-0.018l0 -0.078c-0.005,-0.007 -0.011,-0.012 -0.017,-0.015 -0.006,-0.003 -0.013,-0.004 -0.021,-0.004 -0.015,0 -0.026,0.005 -0.034,0.016 -0.008,0.011 -0.012,0.026 -0.012,0.046 0,0.01 0.001,0.019 0.003,0.027 0.002,0.007 0.004,0.014 0.008,0.018 0.003,0.005 0.008,0.008 0.013,0.011 0.005,0.002 0.011,0.003 0.017,0.003zm0.198 -0.142c0.01,0 0.018,0.002 0.027,0.005 0.008,0.003 0.015,0.008 0.021,0.014 0.006,0.006 0.011,0.014 0.014,0.022 0.003,0.009 0.005,0.019 0.005,0.031 0,0.004 -0,0.007 -0.001,0.009 -0.001,0.002 -0.003,0.002 -0.005,0.002l-0.107 0c0,0.01 0.002,0.019 0.004,0.026 0.003,0.007 0.006,0.014 0.01,0.019 0.004,0.005 0.01,0.009 0.016,0.011 0.006,0.003 0.013,0.004 0.021,0.004 0.007,0 0.013,-0.001 0.018,-0.003 0.005,-0.002 0.01,-0.003 0.013,-0.005 0.004,-0.002 0.007,-0.004 0.009,-0.005 0.002,-0.002 0.005,-0.002 0.006,-0.002 0.002,0 0.004,0.001 0.005,0.003l0.008 0.01c-0.003,0.004 -0.008,0.008 -0.012,0.011 -0.005,0.003 -0.01,0.006 -0.016,0.008 -0.006,0.002 -0.011,0.004 -0.017,0.005 -0.006,0.001 -0.012,0.002 -0.018,0.002 -0.011,0 -0.021,-0.002 -0.031,-0.006 -0.009,-0.004 -0.017,-0.009 -0.024,-0.017 -0.007,-0.007 -0.012,-0.016 -0.016,-0.027 -0.004,-0.011 -0.006,-0.023 -0.006,-0.037 0,-0.011 0.002,-0.022 0.005,-0.031 0.003,-0.01 0.008,-0.018 0.015,-0.025 0.006,-0.007 0.014,-0.013 0.024,-0.017 0.009,-0.004 0.02,-0.006 0.031,-0.006zm0.001 0.021c-0.014,0 -0.024,0.004 -0.032,0.012 -0.008,0.008 -0.013,0.019 -0.015,0.033l0.087 0c0,-0.007 -0.001,-0.013 -0.003,-0.018 -0.002,-0.005 -0.004,-0.01 -0.008,-0.014 -0.004,-0.004 -0.008,-0.007 -0.013,-0.009 -0.005,-0.002 -0.011,-0.003 -0.017,-0.003zm0.149 -0.091l0 0.233 -0.028 0 0 -0.233 0.028 0zm0.097 0.073l0 0.16 -0.028 0 0 -0.16 0.028 0zm0.006 -0.05c0,0.003 -0.001,0.005 -0.002,0.008 -0.001,0.002 -0.003,0.004 -0.004,0.006 -0.002,0.002 -0.004,0.003 -0.006,0.004 -0.002,0.001 -0.005,0.002 -0.008,0.002 -0.003,0 -0.005,-0.001 -0.008,-0.002 -0.002,-0.001 -0.004,-0.003 -0.006,-0.004 -0.002,-0.002 -0.003,-0.004 -0.004,-0.006 -0.001,-0.002 -0.002,-0.005 -0.002,-0.008 0,-0.003 0.001,-0.005 0.002,-0.008 0.001,-0.002 0.003,-0.005 0.004,-0.006 0.002,-0.002 0.004,-0.003 0.006,-0.004 0.002,-0.001 0.005,-0.002 0.008,-0.002 0.003,0 0.005,0.001 0.008,0.002 0.002,0.001 0.005,0.003 0.006,0.004 0.002,0.002 0.003,0.004 0.004,0.006 0.001,0.003 0.002,0.005 0.002,0.008zm0.039 0.05l0.023 0c0.002,0 0.004,0.001 0.006,0.002 0.002,0.001 0.003,0.003 0.003,0.004l0.041 0.103c0.001,0.004 0.003,0.008 0.003,0.011 0.001,0.004 0.002,0.008 0.002,0.011 0.001,-0.004 0.002,-0.007 0.003,-0.011 0.001,-0.004 0.002,-0.008 0.004,-0.011l0.041 -0.103c0.001,-0.002 0.002,-0.003 0.003,-0.004 0.001,-0.001 0.003,-0.002 0.005,-0.002l0.022 0 -0.065 0.16 -0.025 0 -0.065 -0.16zm0.258 -0.003c0.01,0 0.018,0.002 0.027,0.005 0.008,0.003 0.015,0.008 0.021,0.014 0.006,0.006 0.011,0.014 0.014,0.022 0.003,0.009 0.005,0.019 0.005,0.031 0,0.004 -0,0.007 -0.001,0.009 -0.001,0.002 -0.003,0.002 -0.005,0.002l-0.107 0c0,0.01 0.002,0.019 0.004,0.026 0.003,0.007 0.006,0.014 0.01,0.019 0.004,0.005 0.01,0.009 0.016,0.011 0.006,0.003 0.013,0.004 0.021,0.004 0.007,0 0.013,-0.001 0.018,-0.003 0.005,-0.002 0.01,-0.003 0.013,-0.005 0.004,-0.002 0.007,-0.004 0.009,-0.005 0.002,-0.002 0.005,-0.002 0.006,-0.002 0.002,0 0.004,0.001 0.005,0.003l0.008 0.01c-0.003,0.004 -0.008,0.008 -0.012,0.011 -0.005,0.003 -0.01,0.006 -0.016,0.008 -0.006,0.002 -0.011,0.004 -0.017,0.005 -0.006,0.001 -0.012,0.002 -0.018,0.002 -0.011,0 -0.021,-0.002 -0.031,-0.006 -0.009,-0.004 -0.017,-0.009 -0.024,-0.017 -0.007,-0.007 -0.012,-0.016 -0.016,-0.027 -0.004,-0.011 -0.006,-0.023 -0.006,-0.037 0,-0.011 0.002,-0.022 0.005,-0.031 0.003,-0.01 0.008,-0.018 0.015,-0.025 0.006,-0.007 0.014,-0.013 0.024,-0.017 0.009,-0.004 0.02,-0.006 0.031,-0.006zm0.001 0.021c-0.014,0 -0.024,0.004 -0.032,0.012 -0.008,0.008 -0.013,0.019 -0.015,0.033l0.087 0c0,-0.007 -0.001,-0.013 -0.003,-0.018 -0.002,-0.005 -0.004,-0.01 -0.008,-0.014 -0.004,-0.004 -0.008,-0.007 -0.013,-0.009 -0.005,-0.002 -0.011,-0.003 -0.017,-0.003zm0.118 0.142l0 -0.16 0.016 0c0.003,0 0.005,0.001 0.006,0.002 0.001,0.001 0.002,0.003 0.002,0.006l0.002 0.025c0.005,-0.011 0.012,-0.02 0.02,-0.026 0.008,-0.006 0.018,-0.009 0.028,-0.009 0.004,0 0.008,0.001 0.012,0.002 0.004,0.001 0.007,0.002 0.01,0.004l-0.004 0.021c-0.001,0.003 -0.002,0.004 -0.005,0.004 -0.002,0 -0.004,-0.001 -0.007,-0.002 -0.003,-0.001 -0.007,-0.002 -0.013,-0.002 -0.01,0 -0.018,0.003 -0.025,0.009 -0.007,0.006 -0.012,0.014 -0.017,0.025l0 0.102 -0.028 0zm0.207 -0.163c0.01,0 0.018,0.002 0.027,0.005 0.008,0.003 0.015,0.008 0.021,0.014 0.006,0.006 0.011,0.014 0.014,0.022 0.003,0.009 0.005,0.019 0.005,0.031 0,0.004 -0,0.007 -0.001,0.009 -0.001,0.002 -0.003,0.002 -0.005,0.002l-0.107 0c0,0.01 0.002,0.019 0.004,0.026 0.003,0.007 0.006,0.014 0.01,0.019 0.004,0.005 0.01,0.009 0.016,0.011 0.006,0.003 0.013,0.004 0.021,0.004 0.007,0 0.013,-0.001 0.018,-0.003 0.005,-0.002 0.01,-0.003 0.013,-0.005 0.004,-0.002 0.007,-0.004 0.009,-0.005 0.002,-0.002 0.005,-0.002 0.006,-0.002 0.002,0 0.004,0.001 0.005,0.003l0.008 0.01c-0.003,0.004 -0.008,0.008 -0.012,0.011 -0.005,0.003 -0.01,0.006 -0.016,0.008 -0.006,0.002 -0.011,0.004 -0.017,0.005 -0.006,0.001 -0.012,0.002 -0.018,0.002 -0.011,0 -0.021,-0.002 -0.031,-0.006 -0.009,-0.004 -0.017,-0.009 -0.024,-0.017 -0.007,-0.007 -0.012,-0.016 -0.016,-0.027 -0.004,-0.011 -0.006,-0.023 -0.006,-0.037 0,-0.011 0.002,-0.022 0.005,-0.031 0.003,-0.01 0.008,-0.018 0.015,-0.025 0.006,-0.007 0.014,-0.013 0.024,-0.017 0.009,-0.004 0.02,-0.006 0.031,-0.006zm0.001 0.021c-0.014,0 -0.024,0.004 -0.032,0.012 -0.008,0.008 -0.013,0.019 -0.015,0.033l0.087 0c0,-0.007 -0.001,-0.013 -0.003,-0.018 -0.002,-0.005 -0.004,-0.01 -0.008,-0.014 -0.003,-0.004 -0.008,-0.007 -0.013,-0.009 -0.005,-0.002 -0.011,-0.003 -0.017,-0.003zm0.23 0.142c-0.004,0 -0.007,-0.002 -0.008,-0.006l-0.003 -0.019c-0.007,0.008 -0.015,0.015 -0.023,0.02 -0.009,0.005 -0.019,0.008 -0.03,0.008 -0.009,0 -0.018,-0.002 -0.025,-0.005 -0.007,-0.003 -0.014,-0.009 -0.019,-0.016 -0.005,-0.007 -0.009,-0.015 -0.012,-0.026 -0.003,-0.01 -0.004,-0.022 -0.004,-0.035 0,-0.012 0.002,-0.023 0.005,-0.033 0.003,-0.01 0.008,-0.019 0.014,-0.027 0.006,-0.007 0.013,-0.013 0.022,-0.018 0.009,-0.004 0.018,-0.006 0.029,-0.006 0.01,0 0.018,0.002 0.025,0.005 0.007,0.003 0.013,0.008 0.019,0.014l0 -0.089 0.028 0 0 0.233 -0.017 0zm-0.055 -0.021c0.009,0 0.017,-0.002 0.024,-0.006 0.007,-0.004 0.013,-0.01 0.019,-0.018l0 -0.078c-0.005,-0.007 -0.011,-0.012 -0.017,-0.015 -0.006,-0.003 -0.013,-0.004 -0.021,-0.004 -0.015,0 -0.026,0.005 -0.034,0.016 -0.008,0.011 -0.012,0.026 -0.012,0.046 0,0.01 0.001,0.019 0.003,0.027 0.002,0.007 0.004,0.014 0.008,0.018 0.003,0.005 0.008,0.008 0.013,0.011 0.005,0.002 0.011,0.003 0.017,0.003z"/>
   <g>
    <path class="fil1" d="M3.454 2.582c-0.031,0 -0.057,-0.009 -0.079,-0.028 -0.022,-0.019 -0.033,-0.045 -0.033,-0.08 0,-0.031 0.011,-0.057 0.033,-0.077 0.022,-0.02 0.048,-0.03 0.078,-0.03 0.028,0 0.054,0.009 0.076,0.027 0.022,0.018 0.033,0.045 0.033,0.08 0,0.034 -0.011,0.06 -0.032,0.079 -0.022,0.019 -0.047,0.029 -0.077,0.029z"/>
    <path class="fil1" d="M3.38 3.425c-0.003,0 -0.006,-0.001 -0.009,-0.002 -0.008,-0.004 -0.013,-0.012 -0.013,-0.02 0,-0.002 0,-0.004 0.001,-0.005l0.075 -0.303 -0.203 0c0,0 0,0 0,0 -0.012,0 -0.022,-0.01 -0.022,-0.022 0,-0.003 0.001,-0.005 0.002,-0.008l0.149 -0.385c0.003,-0.009 0.012,-0.014 0.021,-0.014l0.139 0c0.008,0 0.015,0.004 0.019,0.01 0.002,0.004 0.004,0.008 0.004,0.012 0,0.003 -0.001,0.006 -0.002,0.009l-0.112 0.242 0.174 0c0.012,0 0.022,0.01 0.022,0.022 0,0.004 -0.002,0.008 -0.004,0.012l-0.222 0.442c-0.004,0.006 -0.011,0.01 -0.019,0.01 0,0 0,0 0,0l0 0z" data-original="#000000"/>
   </g>
   <path class="fil1" d="M1.232 2.619l0 0.669 0.151 0c0.033,0 0.059,-0.001 0.078,-0.003 0.019,-0.002 0.038,-0.006 0.059,-0.013 0.02,-0.007 0.038,-0.017 0.052,-0.03 0.067,-0.056 0.1,-0.154 0.1,-0.292 0,-0.097 -0.015,-0.17 -0.044,-0.219 -0.029,-0.048 -0.066,-0.079 -0.109,-0.092 -0.043,-0.013 -0.095,-0.02 -0.156,-0.02l-0.132 0zm-0.077 -0.158l0.26 0c0.068,0 0.126,0.006 0.174,0.019 0.048,0.013 0.092,0.036 0.132,0.071 0.103,0.088 0.154,0.221 0.154,0.401 0,0.059 -0.005,0.113 -0.015,0.162 -0.01,0.049 -0.026,0.093 -0.048,0.132 -0.022,0.039 -0.049,0.074 -0.083,0.105 -0.026,0.024 -0.055,0.043 -0.087,0.057 -0.031,0.014 -0.065,0.024 -0.101,0.03 -0.036,0.006 -0.077,0.009 -0.122,0.009l-0.26 0c-0.036,0 -0.064,-0.005 -0.082,-0.016 -0.018,-0.011 -0.03,-0.026 -0.036,-0.046 -0.006,-0.02 -0.008,-0.046 -0.008,-0.078l0 -0.723c0,-0.043 0.01,-0.074 0.029,-0.093 0.019,-0.019 0.05,-0.029 0.093,-0.029z"/>
  </g>
 </g>
</svg>