<svg xmlns="http://www.w3.org/2000/svg" width="46" height="46" viewBox="0 0 46 46" fill="none">
    <path
        d="M0 23.028C0 35.6517 10.2335 45.8852 22.8571 45.8852C35.4808 45.8852 45.7143 35.6517 45.7143 23.028C45.7143 10.4044 35.4808 0.170898 22.8571 0.170898C10.2335 0.170898 0 10.4044 0 23.028Z"
        fill="white" />
    <path
        d="M34.2859 23.0282C34.2859 16.7425 29.143 11.5996 22.8573 11.5996C16.5716 11.5996 11.4287 16.7425 11.4287 23.0282C11.4287 28.7425 15.5716 33.4568 21.0001 34.3139V26.3139H18.143V23.0282H21.0001V20.4568C21.0001 17.5996 22.7144 16.0282 25.2859 16.0282C26.5716 16.0282 27.8573 16.3139 27.8573 16.3139V19.171H26.4287C25.0001 19.171 24.5716 20.0282 24.5716 20.8853V23.0282H27.7144L27.143 26.3139H24.4287V34.4568C30.143 33.5996 34.2859 28.7425 34.2859 23.0282Z"
        fill="#00337A" />
</svg>