<svg xmlns="http://www.w3.org/2000/svg" width="30" height="28" viewBox="0 0 30 28" fill="none">
  <path d="M28.2687 4.07848C27.1945 2.5365 25.6772 1.43378 23.9604 0.947451C22.2436 0.461125 20.427 0.619431 18.8025 1.39694C17.3485 2.08251 16.0517 3.23839 15 4.77231C13.9483 3.23464 12.6515 2.07876 11.1975 1.39694C9.57296 0.619431 7.75639 0.461125 6.03961 0.947451C4.32283 1.43378 2.80549 2.5365 1.73135 4.07848C0.598627 5.70016 0 7.72688 0 9.93888C0 13.1222 1.73753 16.6146 5.16384 20.323C7.95584 23.3436 11.2551 25.8174 12.9728 27.0228C13.578 27.446 14.2815 27.6709 15 27.6709C15.7185 27.6709 16.422 27.446 17.0272 27.0228C18.7435 25.8174 22.0442 23.3436 24.8362 20.323C28.2625 16.6161 30 13.1222 30 9.93888C30 7.72688 29.4014 5.70016 28.2687 4.07848Z" fill="#FF5E64"/>
</svg>