<svg xmlns="http://www.w3.org/2000/svg" width="47" height="46" viewBox="0 0 47 46" fill="none">
    <path
        d="M0.857178 23.028C0.857178 35.6517 11.0907 45.8852 23.7143 45.8852C36.338 45.8852 46.5715 35.6517 46.5715 23.028C46.5715 10.4044 36.338 0.170898 23.7143 0.170898C11.0907 0.170898 0.857178 10.4044 0.857178 23.028Z"
        fill="white" />
    <path
        d="M23.7143 13.3138C26.8572 13.3138 27.2857 13.3138 28.5715 13.3138C29.7143 13.3138 30.2857 13.5995 30.7143 13.7423C31.2857 14.028 31.7143 14.1709 32.1429 14.5995C32.5715 15.028 32.8572 15.4566 33 16.028C33.1429 16.4566 33.2857 17.028 33.4286 18.1709C33.4286 19.4566 33.4286 19.7423 33.4286 23.028C33.4286 26.3138 33.4286 26.5995 33.4286 27.8852C33.4286 29.028 33.1429 29.5995 33 30.028C32.7143 30.5995 32.5715 31.028 32.1429 31.4566C31.7143 31.8852 31.2857 32.1709 30.7143 32.3138C30.2857 32.4566 29.7143 32.5995 28.5715 32.7423C27.2857 32.7423 27 32.7423 23.7143 32.7423C20.4286 32.7423 20.1429 32.7423 18.8572 32.7423C17.7143 32.7423 17.1429 32.4566 16.7143 32.3138C16.1429 32.028 15.7143 31.8852 15.2857 31.4566C14.8572 31.028 14.5715 30.5995 14.4286 30.028C14.2857 29.5995 14.1429 29.028 14 27.8852C14 26.5995 14 26.3138 14 23.028C14 19.7423 14 19.4566 14 18.1709C14 17.028 14.2857 16.4566 14.4286 16.028C14.7143 15.4566 14.8572 15.028 15.2857 14.5995C15.7143 14.1709 16.1429 13.8852 16.7143 13.7423C17.1429 13.5995 17.7143 13.4566 18.8572 13.3138C20.1429 13.3138 20.5715 13.3138 23.7143 13.3138ZM23.7143 11.1709C20.4286 11.1709 20.1429 11.1709 18.8572 11.1709C17.5715 11.1709 16.7143 11.4566 16 11.7423C15.2857 12.028 14.5715 12.4566 13.8572 13.1709C13.1429 13.8852 12.8572 14.4566 12.4286 15.3138C12.1429 16.028 12 16.8852 11.8572 18.1709C11.8572 19.4566 11.8572 19.8852 11.8572 23.028C11.8572 26.3138 11.8572 26.5995 11.8572 27.8852C11.8572 29.1709 12.1429 30.028 12.4286 30.7423C12.7143 31.4566 13.1429 32.1709 13.8572 32.8852C14.5715 33.5995 15.1429 33.8852 16 34.3138C16.7143 34.5995 17.5715 34.7423 18.8572 34.8852C20.1429 34.8852 20.5715 34.8852 23.7143 34.8852C26.8572 34.8852 27.2857 34.8852 28.5715 34.8852C29.8572 34.8852 30.7143 34.5995 31.4286 34.3138C32.1429 34.028 32.8572 33.5995 33.5715 32.8852C34.2857 32.1709 34.5715 31.5995 35 30.7423C35.2857 30.028 35.4286 29.1709 35.5715 27.8852C35.5715 26.5995 35.5715 26.1709 35.5715 23.028C35.5715 19.8852 35.5715 19.4566 35.5715 18.1709C35.5715 16.8852 35.2857 16.028 35 15.3138C34.7143 14.5995 34.2857 13.8852 33.5715 13.1709C32.8572 12.4566 32.2857 12.1709 31.4286 11.7423C30.7143 11.4566 29.8572 11.3138 28.5715 11.1709C27.2857 11.1709 27 11.1709 23.7143 11.1709Z"
        fill="#00337A" />
    <path
        d="M23.7143 16.8852C20.2857 16.8852 17.5715 19.5995 17.5715 23.028C17.5715 26.4566 20.2857 29.1709 23.7143 29.1709C27.1429 29.1709 29.8572 26.4566 29.8572 23.028C29.8572 19.5995 27.1429 16.8852 23.7143 16.8852ZM23.7143 27.028C21.5715 27.028 19.7143 25.3138 19.7143 23.028C19.7143 20.8852 21.4286 19.028 23.7143 19.028C25.8572 19.028 27.7143 20.7423 27.7143 23.028C27.7143 25.1709 25.8572 27.028 23.7143 27.028Z"
        fill="#00337A" />
    <path
        d="M30 18.1709C30.789 18.1709 31.4286 17.5313 31.4286 16.7423C31.4286 15.9533 30.789 15.3138 30 15.3138C29.2111 15.3138 28.5715 15.9533 28.5715 16.7423C28.5715 17.5313 29.2111 18.1709 30 18.1709Z"
        fill="#00337A" />
</svg>