<svg xmlns="http://www.w3.org/2000/svg" width="47" height="46" viewBox="0 0 47 46" fill="none">
  <path d="M0.428589 23.028C0.428589 35.6517 10.6621 45.8852 23.2857 45.8852C35.9094 45.8852 46.1429 35.6517 46.1429 23.028C46.1429 10.4044 35.9094 0.170898 23.2857 0.170898C10.6621 0.170898 0.428589 10.4044 0.428589 23.028Z" fill="white"/>
  <path d="M17.0002 34.4568H12.143V19.171H17.0002V34.4568ZM14.5716 17.0282C13.0002 17.0282 11.8573 15.8853 11.8573 14.3139C11.8573 12.7425 13.143 11.5996 14.5716 11.5996C16.143 11.5996 17.2859 12.7425 17.2859 14.3139C17.2859 15.8853 16.143 17.0282 14.5716 17.0282ZM34.7144 34.4568H29.8573V26.171C29.8573 23.7425 28.8573 23.0282 27.4287 23.0282C26.0001 23.0282 24.5716 24.171 24.5716 26.3139V34.4568H19.7144V19.171H24.2859V21.3139C24.7144 20.3139 26.4287 18.7425 28.8573 18.7425C31.5716 18.7425 34.4287 20.3139 34.4287 25.0282V34.4568H34.7144Z" fill="#00337A"/>
</svg>