<svg xmlns="http://www.w3.org/2000/svg" width="133" height="134" viewBox="0 0 133 134" fill="none">
  <g clip-path="url(#clip0_40_345)">
    <rect width="133" height="133" transform="translate(0 0.0854492)" fill="white"/>
    <path d="M4.43336 36.439H0.443359V40.429H4.43336V36.439Z" fill="black"/>
    <path d="M4.43336 40.4287H0.443359V44.4187H4.43336V40.4287Z" fill="black"/>
    <path d="M4.43336 48.4092H0.443359V52.3992H4.43336V48.4092Z" fill="black"/>
    <path d="M4.43336 56.3892H0.443359V60.3792H4.43336V56.3892Z" fill="black"/>
    <path d="M4.43336 60.3789H0.443359V64.3689H4.43336V60.3789Z" fill="black"/>
    <path d="M4.43336 72.3486H0.443359V76.3386H4.43336V72.3486Z" fill="black"/>
    <path d="M4.43336 76.3389H0.443359V80.3289H4.43336V76.3389Z" fill="black"/>
    <path d="M4.43336 80.3291H0.443359V84.3191H4.43336V80.3291Z" fill="black"/>
    <path d="M4.43336 84.3188H0.443359V88.3088H4.43336V84.3188Z" fill="black"/>
    <path d="M4.43336 92.2988H0.443359V96.2888H4.43336V92.2988Z" fill="black"/>
    <path d="M8.42335 32.4487H4.43335V36.4387H8.42335V32.4487Z" fill="black"/>
    <path d="M8.42335 44.4189H4.43335V48.4089H8.42335V44.4189Z" fill="black"/>
    <path d="M8.42335 48.4092H4.43335V52.3992H8.42335V48.4092Z" fill="black"/>
    <path d="M8.42335 52.3989H4.43335V56.3889H8.42335V52.3989Z" fill="black"/>
    <path d="M8.42335 56.3892H4.43335V60.3792H8.42335V56.3892Z" fill="black"/>
    <path d="M8.42335 64.3687H4.43335V68.3587H8.42335V64.3687Z" fill="black"/>
    <path d="M8.42335 68.3589H4.43335V72.3489H8.42335V68.3589Z" fill="black"/>
    <path d="M8.42335 80.3291H4.43335V84.3191H8.42335V80.3291Z" fill="black"/>
    <path d="M8.42335 92.2988H4.43335V96.2888H8.42335V92.2988Z" fill="black"/>
    <path d="M8.42335 96.2891H4.43335V100.279H8.42335V96.2891Z" fill="black"/>
    <path d="M12.4134 32.4487H8.42337V36.4387H12.4134V32.4487Z" fill="black"/>
    <path d="M12.4134 36.439H8.42337V40.429H12.4134V36.439Z" fill="black"/>
    <path d="M12.4134 40.4287H8.42337V44.4187H12.4134V40.4287Z" fill="black"/>
    <path d="M12.4134 44.4189H8.42337V48.4089H12.4134V44.4189Z" fill="black"/>
    <path d="M12.4134 56.3892H8.42337V60.3792H12.4134V56.3892Z" fill="black"/>
    <path d="M12.4134 60.3789H8.42337V64.3689H12.4134V60.3789Z" fill="black"/>
    <path d="M12.4134 64.3687H8.42337V68.3587H12.4134V64.3687Z" fill="black"/>
    <path d="M12.4134 72.3486H8.42337V76.3386H12.4134V72.3486Z" fill="black"/>
    <path d="M12.4134 80.3291H8.42337V84.3191H12.4134V80.3291Z" fill="black"/>
    <path d="M12.4134 96.2891H8.42337V100.279H12.4134V96.2891Z" fill="black"/>
    <path d="M16.4034 52.3989H12.4134V56.3889H16.4034V52.3989Z" fill="black"/>
    <path d="M16.4034 60.3789H12.4134V64.3689H16.4034V60.3789Z" fill="black"/>
    <path d="M16.4034 64.3687H12.4134V68.3587H16.4034V64.3687Z" fill="black"/>
    <path d="M16.4034 72.3486H12.4134V76.3386H16.4034V72.3486Z" fill="black"/>
    <path d="M16.4034 76.3389H12.4134V80.3289H16.4034V76.3389Z" fill="black"/>
    <path d="M16.4034 84.3188H12.4134V88.3088H16.4034V84.3188Z" fill="black"/>
    <path d="M16.4034 96.2891H12.4134V100.279H16.4034V96.2891Z" fill="black"/>
    <path d="M20.3934 40.4287H16.4034V44.4187H20.3934V40.4287Z" fill="black"/>
    <path d="M20.3934 52.3989H16.4034V56.3889H20.3934V52.3989Z" fill="black"/>
    <path d="M20.3934 68.3589H16.4034V72.3489H20.3934V68.3589Z" fill="black"/>
    <path d="M20.3934 72.3486H16.4034V76.3386H20.3934V72.3486Z" fill="black"/>
    <path d="M20.3934 84.3188H16.4034V88.3088H20.3934V84.3188Z" fill="black"/>
    <path d="M20.3934 88.3091H16.4034V92.2991H20.3934V88.3091Z" fill="black"/>
    <path d="M20.3934 92.2988H16.4034V96.2888H20.3934V92.2988Z" fill="black"/>
    <path d="M20.3934 96.2891H16.4034V100.279H20.3934V96.2891Z" fill="black"/>
    <path d="M24.3834 36.439H20.3934V40.429H24.3834V36.439Z" fill="black"/>
    <path d="M24.3834 40.4287H20.3934V44.4187H24.3834V40.4287Z" fill="black"/>
    <path d="M24.3834 44.4189H20.3934V48.4089H24.3834V44.4189Z" fill="black"/>
    <path d="M24.3834 48.4092H20.3934V52.3992H24.3834V48.4092Z" fill="black"/>
    <path d="M24.3834 56.3892H20.3934V60.3792H24.3834V56.3892Z" fill="black"/>
    <path d="M24.3834 64.3687H20.3934V68.3587H24.3834V64.3687Z" fill="black"/>
    <path d="M24.3834 68.3589H20.3934V72.3489H24.3834V68.3589Z" fill="black"/>
    <path d="M24.3834 92.2988H20.3934V96.2888H24.3834V92.2988Z" fill="black"/>
    <path d="M28.3734 32.4487H24.3834V36.4387H28.3734V32.4487Z" fill="black"/>
    <path d="M28.3734 40.4287H24.3834V44.4187H28.3734V40.4287Z" fill="black"/>
    <path d="M28.3734 48.4092H24.3834V52.3992H28.3734V48.4092Z" fill="black"/>
    <path d="M28.3734 56.3892H24.3834V60.3792H28.3734V56.3892Z" fill="black"/>
    <path d="M28.3734 64.3687H24.3834V68.3587H28.3734V64.3687Z" fill="black"/>
    <path d="M28.3734 72.3486H24.3834V76.3386H28.3734V72.3486Z" fill="black"/>
    <path d="M28.3734 80.3291H24.3834V84.3191H28.3734V80.3291Z" fill="black"/>
    <path d="M28.3734 88.3091H24.3834V92.2991H28.3734V88.3091Z" fill="black"/>
    <path d="M28.3734 96.2891H24.3834V100.279H28.3734V96.2891Z" fill="black"/>
    <path d="M32.3634 36.439H28.3734V40.429H32.3634V36.439Z" fill="black"/>
    <path d="M32.3634 40.4287H28.3734V44.4187H32.3634V40.4287Z" fill="black"/>
    <path d="M32.3634 44.4189H28.3734V48.4089H32.3634V44.4189Z" fill="black"/>
    <path d="M32.3634 52.3989H28.3734V56.3889H32.3634V52.3989Z" fill="black"/>
    <path d="M32.3634 56.3892H28.3734V60.3792H32.3634V56.3892Z" fill="black"/>
    <path d="M32.3634 68.3589H28.3734V72.3489H32.3634V68.3589Z" fill="black"/>
    <path d="M32.3634 72.3486H28.3734V76.3386H32.3634V72.3486Z" fill="black"/>
    <path d="M32.3634 76.3389H28.3734V80.3289H32.3634V76.3389Z" fill="black"/>
    <path d="M32.3634 96.2891H28.3734V100.279H32.3634V96.2891Z" fill="black"/>
    <path d="M36.3534 4.51904H32.3634V8.50904H36.3534V4.51904Z" fill="black"/>
    <path d="M36.3534 8.50879H32.3634V12.4988H36.3534V8.50879Z" fill="black"/>
    <path d="M36.3534 12.499H32.3634V16.489H36.3534V12.499Z" fill="black"/>
    <path d="M36.3534 20.479H32.3634V24.469H36.3534V20.479Z" fill="black"/>
    <path d="M36.3534 24.4688H32.3634V28.4588H36.3534V24.4688Z" fill="black"/>
    <path d="M36.3534 36.439H32.3634V40.429H36.3534V36.439Z" fill="black"/>
    <path d="M36.3534 40.4287H32.3634V44.4187H36.3534V40.4287Z" fill="black"/>
    <path d="M36.3534 56.3892H32.3634V60.3792H36.3534V56.3892Z" fill="black"/>
    <path d="M36.3534 64.3687H32.3634V68.3587H36.3534V64.3687Z" fill="black"/>
    <path d="M36.3534 68.3589H32.3634V72.3489H36.3534V68.3589Z" fill="black"/>
    <path d="M36.3534 72.3486H32.3634V76.3386H36.3534V72.3486Z" fill="black"/>
    <path d="M36.3534 84.3188H32.3634V88.3088H36.3534V84.3188Z" fill="black"/>
    <path d="M36.3534 92.2988H32.3634V96.2888H36.3534V92.2988Z" fill="black"/>
    <path d="M36.3534 120.229H32.3634V124.219H36.3534V120.229Z" fill="black"/>
    <path d="M36.3534 124.219H32.3634V128.209H36.3534V124.219Z" fill="black"/>
    <path d="M40.3434 12.499H36.3534V16.489H40.3434V12.499Z" fill="black"/>
    <path d="M40.3434 20.479H36.3534V24.469H40.3434V20.479Z" fill="black"/>
    <path d="M40.3434 28.459H36.3534V32.449H40.3434V28.459Z" fill="black"/>
    <path d="M40.3434 36.439H36.3534V40.429H40.3434V36.439Z" fill="black"/>
    <path d="M40.3434 48.4092H36.3534V52.3992H40.3434V48.4092Z" fill="black"/>
    <path d="M40.3434 52.3989H36.3534V56.3889H40.3434V52.3989Z" fill="black"/>
    <path d="M40.3434 60.3789H36.3534V64.3689H40.3434V60.3789Z" fill="black"/>
    <path d="M40.3434 68.3589H36.3534V72.3489H40.3434V68.3589Z" fill="black"/>
    <path d="M40.3434 72.3486H36.3534V76.3386H40.3434V72.3486Z" fill="black"/>
    <path d="M40.3434 76.3389H36.3534V80.3289H40.3434V76.3389Z" fill="black"/>
    <path d="M40.3434 92.2988H36.3534V96.2888H40.3434V92.2988Z" fill="black"/>
    <path d="M40.3434 104.269H36.3534V108.259H40.3434V104.269Z" fill="black"/>
    <path d="M40.3434 108.259H36.3534V112.249H40.3434V108.259Z" fill="black"/>
    <path d="M40.3434 116.239H36.3534V120.229H40.3434V116.239Z" fill="black"/>
    <path d="M40.3434 120.229H36.3534V124.219H40.3434V120.229Z" fill="black"/>
    <path d="M40.3434 124.219H36.3534V128.209H40.3434V124.219Z" fill="black"/>
    <path d="M40.3434 128.209H36.3534V132.199H40.3434V128.209Z" fill="black"/>
    <path d="M44.3334 0.528809H40.3434V4.51881H44.3334V0.528809Z" fill="black"/>
    <path d="M44.3334 4.51904H40.3434V8.50904H44.3334V4.51904Z" fill="black"/>
    <path d="M44.3334 8.50879H40.3434V12.4988H44.3334V8.50879Z" fill="black"/>
    <path d="M44.3334 12.499H40.3434V16.489H44.3334V12.499Z" fill="black"/>
    <path d="M44.3334 24.4688H40.3434V28.4588H44.3334V24.4688Z" fill="black"/>
    <path d="M44.3334 28.459H40.3434V32.449H44.3334V28.459Z" fill="black"/>
    <path d="M44.3334 36.439H40.3434V40.429H44.3334V36.439Z" fill="black"/>
    <path d="M44.3334 40.4287H40.3434V44.4187H44.3334V40.4287Z" fill="black"/>
    <path d="M44.3334 48.4092H40.3434V52.3992H44.3334V48.4092Z" fill="black"/>
    <path d="M44.3334 52.3989H40.3434V56.3889H44.3334V52.3989Z" fill="black"/>
    <path d="M44.3334 72.3486H40.3434V76.3386H44.3334V72.3486Z" fill="black"/>
    <path d="M44.3334 80.3291H40.3434V84.3191H44.3334V80.3291Z" fill="black"/>
    <path d="M44.3334 84.3188H40.3434V88.3088H44.3334V84.3188Z" fill="black"/>
    <path d="M44.3334 88.3091H40.3434V92.2991H44.3334V88.3091Z" fill="black"/>
    <path d="M44.3334 92.2988H40.3434V96.2888H44.3334V92.2988Z" fill="black"/>
    <path d="M44.3334 104.269H40.3434V108.259H44.3334V104.269Z" fill="black"/>
    <path d="M44.3334 108.259H40.3434V112.249H44.3334V108.259Z" fill="black"/>
    <path d="M44.3334 112.249H40.3434V116.239H44.3334V112.249Z" fill="black"/>
    <path d="M44.3334 116.239H40.3434V120.229H44.3334V116.239Z" fill="black"/>
    <path d="M44.3334 124.219H40.3434V128.209H44.3334V124.219Z" fill="black"/>
    <path d="M44.3334 128.209H40.3434V132.199H44.3334V128.209Z" fill="black"/>
    <path d="M48.3234 0.528809H44.3334V4.51881H48.3234V0.528809Z" fill="black"/>
    <path d="M48.3234 20.479H44.3334V24.469H48.3234V20.479Z" fill="black"/>
    <path d="M48.3234 32.4487H44.3334V36.4387H48.3234V32.4487Z" fill="black"/>
    <path d="M48.3234 40.4287H44.3334V44.4187H48.3234V40.4287Z" fill="black"/>
    <path d="M48.3234 44.4189H44.3334V48.4089H48.3234V44.4189Z" fill="black"/>
    <path d="M48.3234 48.4092H44.3334V52.3992H48.3234V48.4092Z" fill="black"/>
    <path d="M48.3234 52.3989H44.3334V56.3889H48.3234V52.3989Z" fill="black"/>
    <path d="M48.3234 56.3892H44.3334V60.3792H48.3234V56.3892Z" fill="black"/>
    <path d="M48.3234 60.3789H44.3334V64.3689H48.3234V60.3789Z" fill="black"/>
    <path d="M48.3234 68.3589H44.3334V72.3489H48.3234V68.3589Z" fill="black"/>
    <path d="M48.3234 76.3389H44.3334V80.3289H48.3234V76.3389Z" fill="black"/>
    <path d="M48.3234 84.3188H44.3334V88.3088H48.3234V84.3188Z" fill="black"/>
    <path d="M48.3234 88.3091H44.3334V92.2991H48.3234V88.3091Z" fill="black"/>
    <path d="M48.3234 96.2891H44.3334V100.279H48.3234V96.2891Z" fill="black"/>
    <path d="M48.3234 100.279H44.3334V104.269H48.3234V100.279Z" fill="black"/>
    <path d="M48.3234 104.269H44.3334V108.259H48.3234V104.269Z" fill="black"/>
    <path d="M48.3234 108.259H44.3334V112.249H48.3234V108.259Z" fill="black"/>
    <path d="M48.3234 116.239H44.3334V120.229H48.3234V116.239Z" fill="black"/>
    <path d="M48.3234 128.209H44.3334V132.199H48.3234V128.209Z" fill="black"/>
    <path d="M52.3134 8.50879H48.3234V12.4988H52.3134V8.50879Z" fill="black"/>
    <path d="M52.3134 16.4888H48.3234V20.4788H52.3134V16.4888Z" fill="black"/>
    <path d="M52.3134 20.479H48.3234V24.469H52.3134V20.479Z" fill="black"/>
    <path d="M52.3134 24.4688H48.3234V28.4588H52.3134V24.4688Z" fill="black"/>
    <path d="M52.3134 28.459H48.3234V32.449H52.3134V28.459Z" fill="black"/>
    <path d="M52.3134 32.4487H48.3234V36.4387H52.3134V32.4487Z" fill="black"/>
    <path d="M52.3134 36.439H48.3234V40.429H52.3134V36.439Z" fill="black"/>
    <path d="M52.3134 44.4189H48.3234V48.4089H52.3134V44.4189Z" fill="black"/>
    <path d="M52.3134 52.3989H48.3234V56.3889H52.3134V52.3989Z" fill="black"/>
    <path d="M52.3134 60.3789H48.3234V64.3689H52.3134V60.3789Z" fill="black"/>
    <path d="M52.3134 80.3291H48.3234V84.3191H52.3134V80.3291Z" fill="black"/>
    <path d="M52.3134 84.3188H48.3234V88.3088H52.3134V84.3188Z" fill="black"/>
    <path d="M52.3134 88.3091H48.3234V92.2991H52.3134V88.3091Z" fill="black"/>
    <path d="M52.3134 96.2891H48.3234V100.279H52.3134V96.2891Z" fill="black"/>
    <path d="M52.3134 100.279H48.3234V104.269H52.3134V100.279Z" fill="black"/>
    <path d="M52.3134 112.249H48.3234V116.239H52.3134V112.249Z" fill="black"/>
    <path d="M52.3134 116.239H48.3234V120.229H52.3134V116.239Z" fill="black"/>
    <path d="M52.3134 124.219H48.3234V128.209H52.3134V124.219Z" fill="black"/>
    <path d="M52.3134 128.209H48.3234V132.199H52.3134V128.209Z" fill="black"/>
    <path d="M56.3034 0.528809H52.3134V4.51881H56.3034V0.528809Z" fill="black"/>
    <path d="M56.3034 8.50879H52.3134V12.4988H56.3034V8.50879Z" fill="black"/>
    <path d="M56.3034 20.479H52.3134V24.469H56.3034V20.479Z" fill="black"/>
    <path d="M56.3034 28.459H52.3134V32.449H56.3034V28.459Z" fill="black"/>
    <path d="M56.3034 36.439H52.3134V40.429H56.3034V36.439Z" fill="black"/>
    <path d="M56.3034 40.4287H52.3134V44.4187H56.3034V40.4287Z" fill="black"/>
    <path d="M56.3034 44.4189H52.3134V48.4089H56.3034V44.4189Z" fill="black"/>
    <path d="M56.3034 48.4092H52.3134V52.3992H56.3034V48.4092Z" fill="black"/>
    <path d="M56.3034 68.3589H52.3134V72.3489H56.3034V68.3589Z" fill="black"/>
    <path d="M56.3034 80.3291H52.3134V84.3191H56.3034V80.3291Z" fill="black"/>
    <path d="M56.3034 84.3188H52.3134V88.3088H56.3034V84.3188Z" fill="black"/>
    <path d="M56.3034 92.2988H52.3134V96.2888H56.3034V92.2988Z" fill="black"/>
    <path d="M56.3034 104.269H52.3134V108.259H56.3034V104.269Z" fill="black"/>
    <path d="M56.3034 108.259H52.3134V112.249H56.3034V108.259Z" fill="black"/>
    <path d="M56.3034 124.219H52.3134V128.209H56.3034V124.219Z" fill="black"/>
    <path d="M60.2934 0.528809H56.3034V4.51881H60.2934V0.528809Z" fill="black"/>
    <path d="M60.2934 16.4888H56.3034V20.4788H60.2934V16.4888Z" fill="black"/>
    <path d="M60.2934 24.4688H56.3034V28.4588H60.2934V24.4688Z" fill="black"/>
    <path d="M60.2934 36.439H56.3034V40.429H60.2934V36.439Z" fill="black"/>
    <path d="M60.2934 44.4189H56.3034V48.4089H60.2934V44.4189Z" fill="black"/>
    <path d="M60.2934 48.4092H56.3034V52.3992H60.2934V48.4092Z" fill="black"/>
    <path d="M60.2934 52.3989H56.3034V56.3889H60.2934V52.3989Z" fill="black"/>
    <path d="M60.2934 56.3892H56.3034V60.3792H60.2934V56.3892Z" fill="black"/>
    <path d="M60.2934 60.3789H56.3034V64.3689H60.2934V60.3789Z" fill="black"/>
    <path d="M60.2934 64.3687H56.3034V68.3587H60.2934V64.3687Z" fill="black"/>
    <path d="M60.2934 68.3589H56.3034V72.3489H60.2934V68.3589Z" fill="black"/>
    <path d="M60.2934 72.3486H56.3034V76.3386H60.2934V72.3486Z" fill="black"/>
    <path d="M60.2934 76.3389H56.3034V80.3289H60.2934V76.3389Z" fill="black"/>
    <path d="M60.2934 80.3291H56.3034V84.3191H60.2934V80.3291Z" fill="black"/>
    <path d="M60.2934 88.3091H56.3034V92.2991H60.2934V88.3091Z" fill="black"/>
    <path d="M60.2934 96.2891H56.3034V100.279H60.2934V96.2891Z" fill="black"/>
    <path d="M60.2934 104.269H56.3034V108.259H60.2934V104.269Z" fill="black"/>
    <path d="M60.2934 116.239H56.3034V120.229H60.2934V116.239Z" fill="black"/>
    <path d="M64.2834 8.50879H60.2934V12.4988H64.2834V8.50879Z" fill="black"/>
    <path d="M64.2834 28.459H60.2934V32.449H64.2834V28.459Z" fill="black"/>
    <path d="M64.2834 32.4487H60.2934V36.4387H64.2834V32.4487Z" fill="black"/>
    <path d="M64.2834 44.4189H60.2934V48.4089H64.2834V44.4189Z" fill="black"/>
    <path d="M64.2834 52.3989H60.2934V56.3889H64.2834V52.3989Z" fill="black"/>
    <path d="M64.2834 60.3789H60.2934V64.3689H64.2834V60.3789Z" fill="black"/>
    <path d="M64.2834 64.3687H60.2934V68.3587H64.2834V64.3687Z" fill="black"/>
    <path d="M64.2834 84.3188H60.2934V88.3088H64.2834V84.3188Z" fill="black"/>
    <path d="M64.2834 88.3091H60.2934V92.2991H64.2834V88.3091Z" fill="black"/>
    <path d="M64.2834 100.279H60.2934V104.269H64.2834V100.279Z" fill="black"/>
    <path d="M64.2834 104.269H60.2934V108.259H64.2834V104.269Z" fill="black"/>
    <path d="M64.2834 120.229H60.2934V124.219H64.2834V120.229Z" fill="black"/>
    <path d="M68.2734 0.528809H64.2834V4.51881H68.2734V0.528809Z" fill="black"/>
    <path d="M68.2734 4.51904H64.2834V8.50904H68.2734V4.51904Z" fill="black"/>
    <path d="M68.2734 24.4688H64.2834V28.4588H68.2734V24.4688Z" fill="black"/>
    <path d="M68.2734 40.4287H64.2834V44.4187H68.2734V40.4287Z" fill="black"/>
    <path d="M68.2734 44.4189H64.2834V48.4089H68.2734V44.4189Z" fill="black"/>
    <path d="M68.2734 64.3687H64.2834V68.3587H68.2734V64.3687Z" fill="black"/>
    <path d="M68.2734 72.3486H64.2834V76.3386H68.2734V72.3486Z" fill="black"/>
    <path d="M68.2734 84.3188H64.2834V88.3088H68.2734V84.3188Z" fill="black"/>
    <path d="M68.2734 88.3091H64.2834V92.2991H68.2734V88.3091Z" fill="black"/>
    <path d="M68.2734 100.279H64.2834V104.269H68.2734V100.279Z" fill="black"/>
    <path d="M68.2734 104.269H64.2834V108.259H68.2734V104.269Z" fill="black"/>
    <path d="M68.2734 112.249H64.2834V116.239H68.2734V112.249Z" fill="black"/>
    <path d="M68.2734 116.239H64.2834V120.229H68.2734V116.239Z" fill="black"/>
    <path d="M68.2734 120.229H64.2834V124.219H68.2734V120.229Z" fill="black"/>
    <path d="M72.2634 0.528809H68.2734V4.51881H72.2634V0.528809Z" fill="black"/>
    <path d="M72.2634 12.499H68.2734V16.489H72.2634V12.499Z" fill="black"/>
    <path d="M72.2634 16.4888H68.2734V20.4788H72.2634V16.4888Z" fill="black"/>
    <path d="M72.2634 32.4487H68.2734V36.4387H72.2634V32.4487Z" fill="black"/>
    <path d="M72.2634 36.439H68.2734V40.429H72.2634V36.439Z" fill="black"/>
    <path d="M72.2634 44.4189H68.2734V48.4089H72.2634V44.4189Z" fill="black"/>
    <path d="M72.2634 48.4092H68.2734V52.3992H72.2634V48.4092Z" fill="black"/>
    <path d="M72.2634 52.3989H68.2734V56.3889H72.2634V52.3989Z" fill="black"/>
    <path d="M72.2634 56.3892H68.2734V60.3792H72.2634V56.3892Z" fill="black"/>
    <path d="M72.2634 64.3687H68.2734V68.3587H72.2634V64.3687Z" fill="black"/>
    <path d="M72.2634 68.3589H68.2734V72.3489H72.2634V68.3589Z" fill="black"/>
    <path d="M72.2634 80.3291H68.2734V84.3191H72.2634V80.3291Z" fill="black"/>
    <path d="M72.2634 92.2988H68.2734V96.2888H72.2634V92.2988Z" fill="black"/>
    <path d="M72.2634 96.2891H68.2734V100.279H72.2634V96.2891Z" fill="black"/>
    <path d="M72.2634 104.269H68.2734V108.259H72.2634V104.269Z" fill="black"/>
    <path d="M72.2634 112.249H68.2734V116.239H72.2634V112.249Z" fill="black"/>
    <path d="M72.2634 116.239H68.2734V120.229H72.2634V116.239Z" fill="black"/>
    <path d="M72.2634 124.219H68.2734V128.209H72.2634V124.219Z" fill="black"/>
    <path d="M72.2634 128.209H68.2734V132.199H72.2634V128.209Z" fill="black"/>
    <path d="M76.2534 0.528809H72.2634V4.51881H76.2534V0.528809Z" fill="black"/>
    <path d="M76.2534 8.50879H72.2634V12.4988H76.2534V8.50879Z" fill="black"/>
    <path d="M76.2534 12.499H72.2634V16.489H76.2534V12.499Z" fill="black"/>
    <path d="M76.2534 16.4888H72.2634V20.4788H76.2534V16.4888Z" fill="black"/>
    <path d="M76.2534 20.479H72.2634V24.469H76.2534V20.479Z" fill="black"/>
    <path d="M76.2534 24.4688H72.2634V28.4588H76.2534V24.4688Z" fill="black"/>
    <path d="M76.2534 32.4487H72.2634V36.4387H76.2534V32.4487Z" fill="black"/>
    <path d="M76.2534 36.439H72.2634V40.429H76.2534V36.439Z" fill="black"/>
    <path d="M76.2534 48.4092H72.2634V52.3992H76.2534V48.4092Z" fill="black"/>
    <path d="M76.2534 64.3687H72.2634V68.3587H76.2534V64.3687Z" fill="black"/>
    <path d="M76.2534 72.3486H72.2634V76.3386H76.2534V72.3486Z" fill="black"/>
    <path d="M76.2534 84.3188H72.2634V88.3088H76.2534V84.3188Z" fill="black"/>
    <path d="M76.2534 96.2891H72.2634V100.279H76.2534V96.2891Z" fill="black"/>
    <path d="M76.2534 100.279H72.2634V104.269H76.2534V100.279Z" fill="black"/>
    <path d="M76.2534 104.269H72.2634V108.259H76.2534V104.269Z" fill="black"/>
    <path d="M76.2534 108.259H72.2634V112.249H76.2534V108.259Z" fill="black"/>
    <path d="M76.2534 112.249H72.2634V116.239H76.2534V112.249Z" fill="black"/>
    <path d="M76.2534 120.229H72.2634V124.219H76.2534V120.229Z" fill="black"/>
    <path d="M80.2434 0.528809H76.2534V4.51881H80.2434V0.528809Z" fill="black"/>
    <path d="M80.2434 4.51904H76.2534V8.50904H80.2434V4.51904Z" fill="black"/>
    <path d="M80.2434 8.50879H76.2534V12.4988H80.2434V8.50879Z" fill="black"/>
    <path d="M80.2434 36.439H76.2534V40.429H80.2434V36.439Z" fill="black"/>
    <path d="M80.2434 40.4287H76.2534V44.4187H80.2434V40.4287Z" fill="black"/>
    <path d="M80.2434 44.4189H76.2534V48.4089H80.2434V44.4189Z" fill="black"/>
    <path d="M80.2434 48.4092H76.2534V52.3992H80.2434V48.4092Z" fill="black"/>
    <path d="M80.2434 60.3789H76.2534V64.3689H80.2434V60.3789Z" fill="black"/>
    <path d="M80.2434 64.3687H76.2534V68.3587H80.2434V64.3687Z" fill="black"/>
    <path d="M80.2434 68.3589H76.2534V72.3489H80.2434V68.3589Z" fill="black"/>
    <path d="M80.2434 80.3291H76.2534V84.3191H80.2434V80.3291Z" fill="black"/>
    <path d="M80.2434 88.3091H76.2534V92.2991H80.2434V88.3091Z" fill="black"/>
    <path d="M80.2434 96.2891H76.2534V100.279H80.2434V96.2891Z" fill="black"/>
    <path d="M80.2434 100.279H76.2534V104.269H80.2434V100.279Z" fill="black"/>
    <path d="M80.2434 112.249H76.2534V116.239H80.2434V112.249Z" fill="black"/>
    <path d="M80.2434 124.219H76.2534V128.209H80.2434V124.219Z" fill="black"/>
    <path d="M80.2434 128.209H76.2534V132.199H80.2434V128.209Z" fill="black"/>
    <path d="M84.2333 0.528809H80.2433V4.51881H84.2333V0.528809Z" fill="black"/>
    <path d="M84.2333 4.51904H80.2433V8.50904H84.2333V4.51904Z" fill="black"/>
    <path d="M84.2333 8.50879H80.2433V12.4988H84.2333V8.50879Z" fill="black"/>
    <path d="M84.2333 16.4888H80.2433V20.4788H84.2333V16.4888Z" fill="black"/>
    <path d="M84.2333 24.4688H80.2433V28.4588H84.2333V24.4688Z" fill="black"/>
    <path d="M84.2333 28.459H80.2433V32.449H84.2333V28.459Z" fill="black"/>
    <path d="M84.2333 32.4487H80.2433V36.4387H84.2333V32.4487Z" fill="black"/>
    <path d="M84.2333 36.439H80.2433V40.429H84.2333V36.439Z" fill="black"/>
    <path d="M84.2333 40.4287H80.2433V44.4187H84.2333V40.4287Z" fill="black"/>
    <path d="M84.2333 52.3989H80.2433V56.3889H84.2333V52.3989Z" fill="black"/>
    <path d="M84.2333 56.3892H80.2433V60.3792H84.2333V56.3892Z" fill="black"/>
    <path d="M84.2333 60.3789H80.2433V64.3689H84.2333V60.3789Z" fill="black"/>
    <path d="M84.2333 68.3589H80.2433V72.3489H84.2333V68.3589Z" fill="black"/>
    <path d="M84.2333 76.3389H80.2433V80.3289H84.2333V76.3389Z" fill="black"/>
    <path d="M84.2333 88.3091H80.2433V92.2991H84.2333V88.3091Z" fill="black"/>
    <path d="M84.2333 92.2988H80.2433V96.2888H84.2333V92.2988Z" fill="black"/>
    <path d="M84.2333 112.249H80.2433V116.239H84.2333V112.249Z" fill="black"/>
    <path d="M84.2333 116.239H80.2433V120.229H84.2333V116.239Z" fill="black"/>
    <path d="M84.2333 120.229H80.2433V124.219H84.2333V120.229Z" fill="black"/>
    <path d="M84.2333 128.209H80.2433V132.199H84.2333V128.209Z" fill="black"/>
    <path d="M88.2233 0.528809H84.2333V4.51881H88.2233V0.528809Z" fill="black"/>
    <path d="M88.2233 28.459H84.2333V32.449H88.2233V28.459Z" fill="black"/>
    <path d="M88.2233 32.4487H84.2333V36.4387H88.2233V32.4487Z" fill="black"/>
    <path d="M88.2233 44.4189H84.2333V48.4089H88.2233V44.4189Z" fill="black"/>
    <path d="M88.2233 52.3989H84.2333V56.3889H88.2233V52.3989Z" fill="black"/>
    <path d="M88.2233 56.3892H84.2333V60.3792H88.2233V56.3892Z" fill="black"/>
    <path d="M88.2233 64.3687H84.2333V68.3587H88.2233V64.3687Z" fill="black"/>
    <path d="M88.2233 68.3589H84.2333V72.3489H88.2233V68.3589Z" fill="black"/>
    <path d="M88.2233 72.3486H84.2333V76.3386H88.2233V72.3486Z" fill="black"/>
    <path d="M88.2233 80.3291H84.2333V84.3191H88.2233V80.3291Z" fill="black"/>
    <path d="M88.2233 84.3188H84.2333V88.3088H88.2233V84.3188Z" fill="black"/>
    <path d="M88.2233 88.3091H84.2333V92.2991H88.2233V88.3091Z" fill="black"/>
    <path d="M88.2233 92.2988H84.2333V96.2888H88.2233V92.2988Z" fill="black"/>
    <path d="M88.2233 100.279H84.2333V104.269H88.2233V100.279Z" fill="black"/>
    <path d="M88.2233 116.239H84.2333V120.229H88.2233V116.239Z" fill="black"/>
    <path d="M88.2233 128.209H84.2333V132.199H88.2233V128.209Z" fill="black"/>
    <path d="M92.2134 12.499H88.2234V16.489H92.2134V12.499Z" fill="black"/>
    <path d="M92.2134 24.4688H88.2234V28.4588H92.2134V24.4688Z" fill="black"/>
    <path d="M92.2134 28.459H88.2234V32.449H92.2134V28.459Z" fill="black"/>
    <path d="M92.2134 32.4487H88.2234V36.4387H92.2134V32.4487Z" fill="black"/>
    <path d="M92.2134 44.4189H88.2234V48.4089H92.2134V44.4189Z" fill="black"/>
    <path d="M92.2134 52.3989H88.2234V56.3889H92.2134V52.3989Z" fill="black"/>
    <path d="M92.2134 76.3389H88.2234V80.3289H92.2134V76.3389Z" fill="black"/>
    <path d="M92.2134 80.3291H88.2234V84.3191H92.2134V80.3291Z" fill="black"/>
    <path d="M92.2134 84.3188H88.2234V88.3088H92.2134V84.3188Z" fill="black"/>
    <path d="M92.2134 88.3091H88.2234V92.2991H92.2134V88.3091Z" fill="black"/>
    <path d="M92.2134 92.2988H88.2234V96.2888H92.2134V92.2988Z" fill="black"/>
    <path d="M92.2134 96.2891H88.2234V100.279H92.2134V96.2891Z" fill="black"/>
    <path d="M92.2134 104.269H88.2234V108.259H92.2134V104.269Z" fill="black"/>
    <path d="M92.2134 120.229H88.2234V124.219H92.2134V120.229Z" fill="black"/>
    <path d="M92.2134 124.219H88.2234V128.209H92.2134V124.219Z" fill="black"/>
    <path d="M92.2134 128.209H88.2234V132.199H92.2134V128.209Z" fill="black"/>
    <path d="M96.2034 4.51904H92.2134V8.50904H96.2034V4.51904Z" fill="black"/>
    <path d="M96.2034 8.50879H92.2134V12.4988H96.2034V8.50879Z" fill="black"/>
    <path d="M96.2034 20.479H92.2134V24.469H96.2034V20.479Z" fill="black"/>
    <path d="M96.2034 48.4092H92.2134V52.3992H96.2034V48.4092Z" fill="black"/>
    <path d="M96.2034 80.3291H92.2134V84.3191H96.2034V80.3291Z" fill="black"/>
    <path d="M96.2034 88.3091H92.2134V92.2991H96.2034V88.3091Z" fill="black"/>
    <path d="M96.2034 108.259H92.2134V112.249H96.2034V108.259Z" fill="black"/>
    <path d="M96.2034 128.209H92.2134V132.199H96.2034V128.209Z" fill="black"/>
    <path d="M100.193 0.528809H96.2034V4.51881H100.193V0.528809Z" fill="black"/>
    <path d="M100.193 24.4688H96.2034V28.4588H100.193V24.4688Z" fill="black"/>
    <path d="M100.193 28.459H96.2034V32.449H100.193V28.459Z" fill="black"/>
    <path d="M100.193 36.439H96.2034V40.429H100.193V36.439Z" fill="black"/>
    <path d="M100.193 40.4287H96.2034V44.4187H100.193V40.4287Z" fill="black"/>
    <path d="M100.193 44.4189H96.2034V48.4089H100.193V44.4189Z" fill="black"/>
    <path d="M100.193 48.4092H96.2034V52.3992H100.193V48.4092Z" fill="black"/>
    <path d="M100.193 60.3789H96.2034V64.3689H100.193V60.3789Z" fill="black"/>
    <path d="M100.193 76.3389H96.2034V80.3289H100.193V76.3389Z" fill="black"/>
    <path d="M100.193 80.3291H96.2034V84.3191H100.193V80.3291Z" fill="black"/>
    <path d="M100.193 88.3091H96.2034V92.2991H100.193V88.3091Z" fill="black"/>
    <path d="M100.193 96.2891H96.2034V100.279H100.193V96.2891Z" fill="black"/>
    <path d="M100.193 100.279H96.2034V104.269H100.193V100.279Z" fill="black"/>
    <path d="M100.193 104.269H96.2034V108.259H100.193V104.269Z" fill="black"/>
    <path d="M100.193 108.259H96.2034V112.249H100.193V108.259Z" fill="black"/>
    <path d="M100.193 112.249H96.2034V116.239H100.193V112.249Z" fill="black"/>
    <path d="M100.193 116.239H96.2034V120.229H100.193V116.239Z" fill="black"/>
    <path d="M104.183 32.4487H100.193V36.4387H104.183V32.4487Z" fill="black"/>
    <path d="M104.183 36.439H100.193V40.429H104.183V36.439Z" fill="black"/>
    <path d="M104.183 40.4287H100.193V44.4187H104.183V40.4287Z" fill="black"/>
    <path d="M104.183 48.4092H100.193V52.3992H104.183V48.4092Z" fill="black"/>
    <path d="M104.183 52.3989H100.193V56.3889H104.183V52.3989Z" fill="black"/>
    <path d="M104.183 56.3892H100.193V60.3792H104.183V56.3892Z" fill="black"/>
    <path d="M104.183 60.3789H100.193V64.3689H104.183V60.3789Z" fill="black"/>
    <path d="M104.183 64.3687H100.193V68.3587H104.183V64.3687Z" fill="black"/>
    <path d="M104.183 72.3486H100.193V76.3386H104.183V72.3486Z" fill="black"/>
    <path d="M104.183 76.3389H100.193V80.3289H104.183V76.3389Z" fill="black"/>
    <path d="M104.183 84.3188H100.193V88.3088H104.183V84.3188Z" fill="black"/>
    <path d="M104.183 92.2988H100.193V96.2888H104.183V92.2988Z" fill="black"/>
    <path d="M104.183 96.2891H100.193V100.279H104.183V96.2891Z" fill="black"/>
    <path d="M104.183 112.249H100.193V116.239H104.183V112.249Z" fill="black"/>
    <path d="M104.183 116.239H100.193V120.229H104.183V116.239Z" fill="black"/>
    <path d="M108.173 36.439H104.183V40.429H108.173V36.439Z" fill="black"/>
    <path d="M108.173 48.4092H104.183V52.3992H108.173V48.4092Z" fill="black"/>
    <path d="M108.173 52.3989H104.183V56.3889H108.173V52.3989Z" fill="black"/>
    <path d="M108.173 56.3892H104.183V60.3792H108.173V56.3892Z" fill="black"/>
    <path d="M108.173 72.3486H104.183V76.3386H108.173V72.3486Z" fill="black"/>
    <path d="M108.173 76.3389H104.183V80.3289H108.173V76.3389Z" fill="black"/>
    <path d="M108.173 80.3291H104.183V84.3191H108.173V80.3291Z" fill="black"/>
    <path d="M108.173 84.3188H104.183V88.3088H108.173V84.3188Z" fill="black"/>
    <path d="M108.173 92.2988H104.183V96.2888H108.173V92.2988Z" fill="black"/>
    <path d="M108.173 96.2891H104.183V100.279H108.173V96.2891Z" fill="black"/>
    <path d="M108.173 104.269H104.183V108.259H108.173V104.269Z" fill="black"/>
    <path d="M108.173 112.249H104.183V116.239H108.173V112.249Z" fill="black"/>
    <path d="M112.163 32.4487H108.173V36.4387H112.163V32.4487Z" fill="black"/>
    <path d="M112.163 36.439H108.173V40.429H112.163V36.439Z" fill="black"/>
    <path d="M112.163 44.4189H108.173V48.4089H112.163V44.4189Z" fill="black"/>
    <path d="M112.163 48.4092H108.173V52.3992H112.163V48.4092Z" fill="black"/>
    <path d="M112.163 60.3789H108.173V64.3689H112.163V60.3789Z" fill="black"/>
    <path d="M112.163 68.3589H108.173V72.3489H112.163V68.3589Z" fill="black"/>
    <path d="M112.163 72.3486H108.173V76.3386H112.163V72.3486Z" fill="black"/>
    <path d="M112.163 96.2891H108.173V100.279H112.163V96.2891Z" fill="black"/>
    <path d="M112.163 112.249H108.173V116.239H112.163V112.249Z" fill="black"/>
    <path d="M112.163 116.239H108.173V120.229H112.163V116.239Z" fill="black"/>
    <path d="M112.163 120.229H108.173V124.219H112.163V120.229Z" fill="black"/>
    <path d="M112.163 124.219H108.173V128.209H112.163V124.219Z" fill="black"/>
    <path d="M112.163 128.209H108.173V132.199H112.163V128.209Z" fill="black"/>
    <path d="M116.153 36.439H112.163V40.429H116.153V36.439Z" fill="black"/>
    <path d="M116.153 44.4189H112.163V48.4089H116.153V44.4189Z" fill="black"/>
    <path d="M116.153 56.3892H112.163V60.3792H116.153V56.3892Z" fill="black"/>
    <path d="M116.153 68.3589H112.163V72.3489H116.153V68.3589Z" fill="black"/>
    <path d="M116.153 72.3486H112.163V76.3386H116.153V72.3486Z" fill="black"/>
    <path d="M116.153 88.3091H112.163V92.2991H116.153V88.3091Z" fill="black"/>
    <path d="M116.153 92.2988H112.163V96.2888H116.153V92.2988Z" fill="black"/>
    <path d="M116.153 96.2891H112.163V100.279H116.153V96.2891Z" fill="black"/>
    <path d="M116.153 100.279H112.163V104.269H116.153V100.279Z" fill="black"/>
    <path d="M116.153 104.269H112.163V108.259H116.153V104.269Z" fill="black"/>
    <path d="M116.153 108.259H112.163V112.249H116.153V108.259Z" fill="black"/>
    <path d="M116.153 112.249H112.163V116.239H116.153V112.249Z" fill="black"/>
    <path d="M116.153 120.229H112.163V124.219H116.153V120.229Z" fill="black"/>
    <path d="M116.153 124.219H112.163V128.209H116.153V124.219Z" fill="black"/>
    <path d="M120.143 32.4487H116.153V36.4387H120.143V32.4487Z" fill="black"/>
    <path d="M120.143 40.4287H116.153V44.4187H120.143V40.4287Z" fill="black"/>
    <path d="M120.143 48.4092H116.153V52.3992H120.143V48.4092Z" fill="black"/>
    <path d="M120.143 52.3989H116.153V56.3889H120.143V52.3989Z" fill="black"/>
    <path d="M120.143 72.3486H116.153V76.3386H120.143V72.3486Z" fill="black"/>
    <path d="M120.143 76.3389H116.153V80.3289H120.143V76.3389Z" fill="black"/>
    <path d="M120.143 84.3188H116.153V88.3088H120.143V84.3188Z" fill="black"/>
    <path d="M120.143 88.3091H116.153V92.2991H120.143V88.3091Z" fill="black"/>
    <path d="M120.143 96.2891H116.153V100.279H120.143V96.2891Z" fill="black"/>
    <path d="M120.143 108.259H116.153V112.249H120.143V108.259Z" fill="black"/>
    <path d="M120.143 116.239H116.153V120.229H120.143V116.239Z" fill="black"/>
    <path d="M120.143 124.219H116.153V128.209H120.143V124.219Z" fill="black"/>
    <path d="M120.143 128.209H116.153V132.199H120.143V128.209Z" fill="black"/>
    <path d="M124.133 32.4487H120.143V36.4387H124.133V32.4487Z" fill="black"/>
    <path d="M124.133 40.4287H120.143V44.4187H124.133V40.4287Z" fill="black"/>
    <path d="M124.133 48.4092H120.143V52.3992H124.133V48.4092Z" fill="black"/>
    <path d="M124.133 52.3989H120.143V56.3889H124.133V52.3989Z" fill="black"/>
    <path d="M124.133 56.3892H120.143V60.3792H124.133V56.3892Z" fill="black"/>
    <path d="M124.133 68.3589H120.143V72.3489H124.133V68.3589Z" fill="black"/>
    <path d="M124.133 80.3291H120.143V84.3191H124.133V80.3291Z" fill="black"/>
    <path d="M124.133 88.3091H120.143V92.2991H124.133V88.3091Z" fill="black"/>
    <path d="M124.133 96.2891H120.143V100.279H124.133V96.2891Z" fill="black"/>
    <path d="M124.133 100.279H120.143V104.269H124.133V100.279Z" fill="black"/>
    <path d="M124.133 104.269H120.143V108.259H124.133V104.269Z" fill="black"/>
    <path d="M124.133 108.259H120.143V112.249H124.133V108.259Z" fill="black"/>
    <path d="M124.133 120.229H120.143V124.219H124.133V120.229Z" fill="black"/>
    <path d="M128.123 32.4487H124.133V36.4387H128.123V32.4487Z" fill="black"/>
    <path d="M128.123 40.4287H124.133V44.4187H128.123V40.4287Z" fill="black"/>
    <path d="M128.123 60.3789H124.133V64.3689H128.123V60.3789Z" fill="black"/>
    <path d="M128.123 72.3486H124.133V76.3386H128.123V72.3486Z" fill="black"/>
    <path d="M128.123 80.3291H124.133V84.3191H128.123V80.3291Z" fill="black"/>
    <path d="M128.123 88.3091H124.133V92.2991H128.123V88.3091Z" fill="black"/>
    <path d="M128.123 92.2988H124.133V96.2888H128.123V92.2988Z" fill="black"/>
    <path d="M128.123 108.259H124.133V112.249H128.123V108.259Z" fill="black"/>
    <path d="M128.123 112.249H124.133V116.239H128.123V112.249Z" fill="black"/>
    <path d="M128.123 128.209H124.133V132.199H128.123V128.209Z" fill="black"/>
    <path d="M132.113 44.4189H128.123V48.4089H132.113V44.4189Z" fill="black"/>
    <path d="M132.113 48.4092H128.123V52.3992H132.113V48.4092Z" fill="black"/>
    <path d="M132.113 52.3989H128.123V56.3889H132.113V52.3989Z" fill="black"/>
    <path d="M132.113 64.3687H128.123V68.3587H132.113V64.3687Z" fill="black"/>
    <path d="M132.113 68.3589H128.123V72.3489H132.113V68.3589Z" fill="black"/>
    <path d="M132.113 76.3389H128.123V80.3289H132.113V76.3389Z" fill="black"/>
    <path d="M132.113 84.3188H128.123V88.3088H132.113V84.3188Z" fill="black"/>
    <path d="M132.113 92.2988H128.123V96.2888H132.113V92.2988Z" fill="black"/>
    <path d="M132.113 100.279H128.123V104.269H132.113V100.279Z" fill="black"/>
    <path d="M132.113 104.269H128.123V108.259H132.113V104.269Z" fill="black"/>
    <path d="M132.113 112.249H128.123V116.239H132.113V112.249Z" fill="black"/>
    <path d="M132.113 120.229H128.123V124.219H132.113V120.229Z" fill="black"/>
    <path d="M0.443359 0.528809V28.4588H28.3734V0.528809H0.443359ZM4.43336 4.51881H24.3834V24.4688H4.43336V4.51881Z" fill="black"/>
    <path d="M20.3933 8.50879H8.42334V20.4788H20.3933V8.50879Z" fill="black"/>
    <path d="M132.113 0.528809L104.183 0.528809V28.4588H132.113V0.528809ZM128.123 4.51881V24.4688H108.173V4.51881L128.123 4.51881Z" fill="black"/>
    <path d="M124.133 20.4788V8.50879H112.163V20.4788H124.133Z" fill="black"/>
    <path d="M0.443359 132.199H28.3734V104.269H0.443359L0.443359 132.199ZM4.43336 128.209L4.43336 108.259H24.3834V128.209H4.43336Z" fill="black"/>
    <path d="M8.42334 112.249V124.219H20.3933V112.249H8.42334Z" fill="black"/>
  </g>
  <defs>
    <clipPath id="clip0_40_345">
      <rect width="133" height="133" fill="white" transform="translate(0 0.0854492)"/>
    </clipPath>
  </defs>
</svg>