<svg xmlns="http://www.w3.org/2000/svg" width="47" height="46" viewBox="0 0 47 46" fill="none">
  <path d="M0.714294 23.028C0.714294 35.6517 10.9478 45.8852 23.5714 45.8852C36.1951 45.8852 46.4286 35.6517 46.4286 23.028C46.4286 10.4044 36.1951 0.170898 23.5714 0.170898C10.9478 0.170898 0.714294 10.4044 0.714294 23.028Z" fill="white"/>
  <path d="M34.9992 15.885C34.142 16.3136 33.2849 16.4565 32.2849 16.5993C33.2849 16.0279 33.9992 15.1708 34.2849 14.0279C33.4277 14.5993 32.4277 14.885 31.2849 15.1708C30.4277 14.3136 29.142 13.7422 27.8563 13.7422C24.8563 13.7422 22.5706 16.5993 23.2849 19.4565C19.4277 19.3136 15.9992 17.4565 13.5706 14.5993C12.2849 16.7422 12.9992 19.4565 14.9992 20.885C14.2849 20.885 13.5706 20.5993 12.8563 20.3136C12.8563 22.4565 14.4277 24.4565 16.5706 25.0279C15.8563 25.1708 15.142 25.3136 14.4277 25.1708C14.9992 27.0279 16.7135 28.4565 18.8563 28.4565C17.142 29.7422 14.5706 30.4565 12.142 30.1708C14.2849 31.4565 16.7135 32.3136 19.2849 32.3136C27.9992 32.3136 32.8563 25.0279 32.5706 18.3136C33.5706 17.7422 34.4277 16.885 34.9992 15.885Z" fill="#00337A"/>
</svg>