<svg xmlns="http://www.w3.org/2000/svg" width="46" height="46" viewBox="0 0 46 46" fill="none">
  <path d="M0.142822 23.028C0.142822 35.6517 10.3763 45.8852 23 45.8852C35.6236 45.8852 45.8571 35.6517 45.8571 23.028C45.8571 10.4044 35.6236 0.170898 23 0.170898C10.3763 0.170898 0.142822 10.4044 0.142822 23.028Z" fill="white"/>
  <path d="M33.8573 17.4569C33.5715 16.4569 32.8573 15.7426 31.8573 15.4569C30.143 15.0283 22.8572 15.0283 22.8572 15.0283C22.8572 15.0283 15.7144 15.0283 13.8573 15.4569C12.8573 15.7426 12.143 16.4569 11.8572 17.4569C11.5715 19.314 11.5715 23.0283 11.5715 23.0283C11.5715 23.0283 11.5715 26.7426 12.0001 28.5997C12.2858 29.5997 13.0001 30.314 14.0001 30.5997C15.7144 31.0283 23.0001 31.0283 23.0001 31.0283C23.0001 31.0283 30.1429 31.0283 32.0001 30.5997C33.0001 30.314 33.7144 29.5997 34.0001 28.5997C34.4287 26.7426 34.4287 23.0283 34.4287 23.0283C34.4287 23.0283 34.4287 19.314 33.8573 17.4569ZM20.7144 26.4569V19.5998L26.7144 23.0283L20.7144 26.4569Z" fill="#00337A"/>
</svg>